<svg version="1.1" id="Layer_1" xmlns="http://www.w3.org/2000/svg" xmlns:xlink="http://www.w3.org/1999/xlink" x="0px" y="0px"
	 width="100%" viewBox="0 0 900 650" enable-background="new 0 0 900 650" xml:space="preserve">
<path fill="#130F0F" opacity="1.000000" stroke="none" 
	d="
M566.000000,651.000000 
	C377.333344,651.000000 189.166672,651.000000 1.000000,651.000000 
	C1.000000,434.333344 1.000000,217.666672 1.000000,1.000000 
	C301.000000,1.000000 601.000000,1.000000 901.000000,1.000000 
	C901.000000,217.666672 901.000000,434.333344 901.000000,651.000000 
	C789.500000,651.000000 678.000000,651.000000 566.000000,651.000000 
M211.023560,415.738708 
	C212.059265,418.142914 213.094971,420.547150 214.110016,423.683960 
	C230.556671,463.327118 255.361206,496.800690 288.506348,524.038208 
	C312.372986,543.651001 338.821075,558.699585 368.712311,568.828003 
	C390.654816,575.977051 413.120941,580.596069 436.169800,581.785156 
	C474.963776,583.786560 512.524597,577.885010 548.500366,562.958069 
	C586.666504,547.122253 619.355713,523.704956 646.511047,491.584656 
	C649.919067,487.298920 653.473633,483.120667 656.709229,478.708527 
	C669.391785,461.414307 680.391235,443.163025 688.284912,422.380676 
	C689.174072,419.922699 690.063232,417.464722 691.401123,414.440399 
	C692.542725,410.953125 693.684326,407.465820 695.169189,403.315094 
	C696.109009,399.877289 697.048889,396.439484 698.415405,392.385193 
	C699.210815,388.914673 700.006165,385.444153 701.076477,381.228729 
	C707.560120,352.520142 708.780640,323.547974 705.121704,294.385254 
	C697.754700,235.668488 673.314148,184.928314 630.922302,143.856949 
	C569.916443,84.751335 496.468109,60.967499 412.338745,73.024452 
	C348.437256,82.182457 295.769745,112.704750 254.287277,162.041107 
	C218.233856,204.920578 198.877487,254.766953 195.314056,310.575470 
	C193.781723,334.574097 195.323853,358.497437 201.127609,382.747772 
	C202.088776,386.165741 203.049942,389.583710 203.959503,393.784607 
	C205.030914,397.182373 206.102341,400.580170 207.158417,404.723938 
	C208.454147,408.151367 209.749878,411.578827 211.023560,415.738708 
z"/>
<path fill="#ECEFEF" opacity="1.000000" stroke="none" 
	d="
M201.198273,381.973785 
	C195.323853,358.497437 193.781723,334.574097 195.314056,310.575470 
	C198.877487,254.766953 218.233856,204.920578 254.287277,162.041107 
	C295.769745,112.704750 348.437256,82.182457 412.338745,73.024452 
	C496.468109,60.967499 569.916443,84.751335 630.922302,143.856949 
	C673.314148,184.928314 697.754700,235.668488 705.121704,294.385254 
	C708.780640,323.547974 707.560120,352.520142 700.483032,381.595856 
	C693.393555,381.967712 686.879578,381.678528 680.407288,382.073120 
	C675.512207,382.371552 673.142395,381.095428 673.912720,375.801605 
	C674.108582,374.455627 673.593262,371.834991 673.079590,371.749298 
	C670.021179,371.239044 666.807800,370.928436 663.784485,371.412720 
	C662.951782,371.546112 662.005066,374.667999 662.127991,376.344025 
	C662.443542,380.646637 661.096375,382.561066 656.550720,382.036499 
	C653.756348,381.714050 650.875122,381.767273 648.067139,382.024780 
	C643.577515,382.436554 641.532837,380.856415 641.924683,376.120026 
	C642.054688,374.548340 641.538452,372.043488 640.462646,371.404388 
	C635.860657,368.670319 630.841736,371.661896 631.087830,376.982910 
	C631.274597,381.022400 629.802979,382.359924 625.915222,382.029633 
	C622.772705,381.762634 619.590332,381.965790 616.301270,381.515747 
	C615.435059,372.050140 614.693176,363.029175 614.022400,353.563965 
	C613.939453,350.302734 613.633118,347.482300 613.697510,344.670349 
	C613.728455,343.321777 614.061584,341.580780 614.943420,340.719299 
	C619.066284,336.691559 620.395325,331.890503 620.225098,326.263336 
	C619.989075,318.463318 620.218872,310.650360 620.152405,302.843781 
	C620.067749,292.899048 619.886353,282.955139 619.624146,272.714478 
	C591.091675,249.530609 562.696167,226.625290 534.267395,203.761368 
	C510.383026,184.552231 486.459900,165.391281 462.426636,146.056458 
	C462.111572,145.710983 461.896088,145.556732 461.480988,145.244476 
	C461.006531,144.879929 460.703979,144.712051 460.209534,144.371536 
	C459.694489,144.081375 459.371307,143.963837 458.965240,143.531860 
	C456.782440,141.209030 454.682587,139.200668 452.544861,136.713531 
	C452.502533,125.523598 452.498047,114.812447 452.915405,104.033569 
	C456.259125,103.977417 459.181030,103.988976 462.130219,104.454361 
	C462.160919,107.053116 461.955902,109.226776 462.246063,111.332176 
	C462.419128,112.587914 463.369263,113.736549 464.431946,115.030441 
	C479.267548,115.127548 493.641296,115.127548 509.088806,115.127548 
	C504.852295,111.298553 501.475464,108.246552 497.866302,104.984581 
	C501.589264,101.749100 505.020905,98.766792 509.327362,95.024208 
	C499.125946,95.024208 490.058319,95.024208 480.839233,94.586136 
	C480.687744,90.579216 480.687744,87.010384 480.687744,82.899025 
	C470.659729,82.899025 461.576721,82.899025 452.492859,82.441238 
	C452.093048,80.549789 451.694122,79.116135 451.295197,77.682480 
	C450.649475,77.785255 450.003723,77.888031 449.357971,77.990799 
	C449.357971,97.723465 449.357971,117.456131 449.139160,137.330688 
	C447.927002,138.486969 446.933655,139.501373 445.674927,140.735641 
	C443.627045,142.503937 441.844513,144.052383 439.756592,145.783081 
	C403.681732,174.779968 367.891602,203.569000 332.151917,232.420471 
	C315.468933,245.888092 298.883575,259.476593 282.081543,273.449951 
	C281.884369,292.176849 281.756042,310.465210 281.943695,328.750305 
	C281.972748,331.584961 282.568451,335.413788 284.426819,337.033569 
	C289.138763,341.140503 288.584778,345.918335 288.033966,351.021790 
	C287.927979,352.003906 288.060425,353.011780 287.978180,354.414795 
	C287.163757,363.865936 286.454010,372.910065 285.293274,381.956421 
	C282.682434,381.964874 280.522614,381.975952 278.362793,381.976471 
	C270.103455,381.978455 269.996796,381.989899 269.040588,373.967987 
	C268.507965,369.499695 265.218445,371.273682 262.936798,371.072021 
	C260.750122,370.878754 258.288727,370.379333 257.950226,374.101288 
	C257.232544,381.992035 257.069519,381.977203 248.842773,381.977264 
	C247.181351,381.977264 245.497040,381.800049 243.862900,382.011169 
	C239.394257,382.588501 237.383362,381.022491 237.910767,376.271759 
	C238.087128,374.683014 237.671402,372.178955 236.602234,371.451447 
	C232.391785,368.586670 226.797394,371.723785 227.077896,376.782440 
	C227.314850,381.055481 225.667480,382.216644 221.630569,382.052429 
	C214.829987,381.775818 208.010056,381.974823 201.198273,381.973785 
z"/>
<path fill="#848484" opacity="1.000000" stroke="none" 
	d="
M645.984253,491.991455 
	C619.355713,523.704956 586.666504,547.122253 548.500366,562.958069 
	C512.524597,577.885010 474.963776,583.786560 436.169800,581.785156 
	C413.120941,580.596069 390.654816,575.977051 368.433411,568.186523 
	C367.032471,566.136292 366.043610,564.591736 364.767822,563.339600 
	C351.260681,550.082947 337.727753,536.852295 324.159882,523.657715 
	C316.308563,516.022400 308.301422,508.545654 300.529877,500.830872 
	C297.773773,498.094849 295.507416,494.865509 293.381073,491.921753 
	C298.126190,493.684326 302.507690,495.386505 307.164734,497.328308 
	C319.787170,500.654816 332.134033,503.741699 344.848755,506.908966 
	C356.742615,508.603821 368.268677,510.218323 380.227325,511.901093 
	C385.107849,512.298157 389.555756,512.626892 394.424194,513.022705 
	C402.465118,513.687439 410.093231,514.876831 417.704712,514.778625 
	C447.804718,514.390320 477.899506,513.598511 508.446411,512.995117 
	C513.332520,512.633911 517.768433,512.233948 522.618042,511.830872 
	C534.569214,510.158661 546.106750,508.489532 558.058838,506.810974 
	C570.718323,503.544952 582.963318,500.288361 595.576050,497.007568 
	C602.683899,493.427826 609.423889,489.872284 616.495300,486.209015 
	C618.896790,482.759064 620.966858,479.416809 623.326538,476.232147 
	C627.189392,479.112305 630.677307,481.957367 634.359619,484.523499 
	C638.135498,487.154877 642.101501,489.513458 645.984253,491.991455 
z"/>
<path fill="#B4B4B4" opacity="1.000000" stroke="none" 
	d="
M293.017456,491.861389 
	C295.507416,494.865509 297.773773,498.094849 300.529877,500.830872 
	C308.301422,508.545654 316.308563,516.022400 324.159882,523.657715 
	C337.727753,536.852295 351.260681,550.082947 364.767822,563.339600 
	C366.043610,564.591736 367.032471,566.136292 368.211914,567.921021 
	C338.821075,558.699585 312.372986,543.651001 288.506348,524.038208 
	C255.361206,496.800690 230.556671,463.327118 214.573761,423.286865 
	C218.977386,422.814728 222.917297,422.739655 227.322784,422.739044 
	C231.245361,422.757660 234.702347,422.701813 238.608429,422.720917 
	C245.319748,422.749390 251.581940,422.702911 258.310486,422.732880 
	C262.238525,422.744110 265.700165,422.678894 269.603271,422.702026 
	C274.292236,422.802246 278.539825,422.814087 282.857422,423.269165 
	C281.861603,439.581757 281.176178,455.490204 279.551849,471.302216 
	C278.853546,478.100281 280.726593,482.907837 286.152985,487.034271 
	C287.943787,488.295197 289.466003,489.377380 291.145294,490.769592 
	C291.890411,491.382141 292.478485,491.684662 293.026550,491.966553 
	C292.986542,491.945923 293.017456,491.861389 293.017456,491.861389 
z"/>
<path fill="#B4B4B4" opacity="1.000000" stroke="none" 
	d="
M646.247681,491.788055 
	C642.101501,489.513458 638.135498,487.154877 634.359619,484.523499 
	C630.677307,481.957367 627.189392,479.112305 623.260315,475.797577 
	C621.678528,457.743134 620.452576,440.280884 619.671387,422.828918 
	C623.691956,422.777710 627.267822,422.716217 631.310303,422.731262 
	C635.242493,422.738251 638.708008,422.668701 642.619446,422.688080 
	C649.325378,422.737427 655.585388,422.697845 662.312683,422.734924 
	C666.567932,422.764160 670.355835,422.716797 674.590210,422.739929 
	C679.313354,422.857391 683.590027,422.904388 687.866760,422.951385 
	C680.391235,443.163025 669.391785,461.414307 656.709229,478.708527 
	C653.473633,483.120667 649.919067,487.298920 646.247681,491.788055 
z"/>
<path fill="#D8D7D7" opacity="1.000000" stroke="none" 
	d="
M642.173523,422.599152 
	C638.708008,422.668701 635.242493,422.738251 631.356079,422.321747 
	C631.055298,415.017670 631.055298,415.019531 624.343628,415.006989 
	C622.521057,415.003571 620.698486,414.985382 618.756958,414.584686 
	C618.448792,410.791321 618.259521,407.387207 618.530457,403.987061 
	C621.635193,403.991760 624.295227,403.810730 626.920898,404.033813 
	C631.394043,404.413849 631.080139,401.477692 631.012878,398.572174 
	C630.949036,395.816284 631.693115,392.654724 627.078369,392.957306 
	C623.786377,393.173187 620.469727,393.013733 617.090393,392.582733 
	C616.819641,388.749298 616.622620,385.354828 616.425537,381.960388 
	C619.590332,381.965790 622.772705,381.762634 625.915222,382.029633 
	C629.802979,382.359924 631.274597,381.022400 631.087830,376.982910 
	C630.841736,371.661896 635.860657,368.670319 640.462646,371.404388 
	C641.538452,372.043488 642.054688,374.548340 641.924683,376.120026 
	C641.532837,380.856415 643.577515,382.436554 648.067139,382.024780 
	C650.875122,381.767273 653.756348,381.714050 656.550720,382.036499 
	C661.096375,382.561066 662.443542,380.646637 662.127991,376.344025 
	C662.005066,374.667999 662.951782,371.546112 663.784485,371.412720 
	C666.807800,370.928436 670.021179,371.239044 673.079590,371.749298 
	C673.593262,371.834991 674.108582,374.455627 673.912720,375.801605 
	C673.142395,381.095428 675.512207,382.371552 680.407288,382.073120 
	C686.879578,381.678528 693.393555,381.967712 700.345581,381.968323 
	C700.006165,385.444153 699.210815,388.914673 697.734131,392.691223 
	C691.247437,392.996521 685.429443,393.228455 679.640686,392.917419 
	C675.434631,392.691406 673.743591,393.787933 673.831482,398.377655 
	C673.912292,402.596039 674.848816,404.420074 679.406494,404.081024 
	C684.520569,403.700592 689.683960,403.983978 694.825928,403.978516 
	C693.684326,407.465820 692.542725,410.953125 690.711792,414.723633 
	C687.069641,415.006195 684.116821,415.004211 681.163940,415.005188 
	C673.757874,415.007629 673.757874,415.008148 674.143799,422.669434 
	C670.355835,422.716797 666.567932,422.764160 662.360596,422.324890 
	C662.072693,415.016968 662.072693,415.016388 655.442871,415.008575 
	C653.469482,415.006256 651.496094,415.006653 649.522705,415.008453 
	C642.537354,415.014771 642.101807,415.465088 642.173523,422.599152 
M642.972778,399.416931 
	C642.542236,402.830353 643.920959,404.296661 647.462097,404.038208 
	C650.601868,403.809052 653.789062,403.782593 656.923767,404.044373 
	C660.786865,404.367004 662.040222,403.028809 662.164429,399.028870 
	C662.314087,394.209229 660.829285,392.331512 655.990967,392.943329 
	C653.538147,393.253448 650.986389,393.232758 648.527832,392.945984 
	C644.151123,392.435577 642.254211,394.074158 642.972778,399.416931 
z"/>
<path fill="#D8D7D7" opacity="1.000000" stroke="none" 
	d="
M238.159332,422.645966 
	C234.702347,422.701813 231.245361,422.757660 227.363052,422.328247 
	C227.041794,415.012238 227.041794,415.010620 220.427673,415.004028 
	C217.300323,415.000916 214.172958,415.005280 211.045609,415.006256 
	C209.749878,411.578827 208.454147,408.151367 207.623489,404.350311 
	C213.062576,403.981537 218.046066,403.797394 223.007812,404.046539 
	C227.603409,404.277222 226.963226,401.250946 227.004608,398.446289 
	C227.047424,395.544922 227.412384,392.743988 222.909683,392.932251 
	C216.620193,393.195190 210.311554,393.000549 204.011108,393.001678 
	C203.049942,389.583710 202.088776,386.165741 201.162933,382.360779 
	C208.010056,381.974823 214.829987,381.775818 221.630569,382.052429 
	C225.667480,382.216644 227.314850,381.055481 227.077896,376.782440 
	C226.797394,371.723785 232.391785,368.586670 236.602234,371.451447 
	C237.671402,372.178955 238.087128,374.683014 237.910767,376.271759 
	C237.383362,381.022491 239.394257,382.588501 243.862900,382.011169 
	C245.497040,381.800049 247.181351,381.977264 248.842773,381.977264 
	C257.069519,381.977203 257.232544,381.992035 257.950226,374.101288 
	C258.288727,370.379333 260.750122,370.878754 262.936798,371.072021 
	C265.218445,371.273682 268.507965,369.499695 269.040588,373.967987 
	C269.996796,381.989899 270.103455,381.978455 278.362793,381.976471 
	C280.522614,381.975952 282.682434,381.964874 285.336426,382.375183 
	C285.513367,386.200806 285.196198,389.609863 284.419800,393.011169 
	C280.149933,393.003326 276.336639,393.093719 272.529449,392.979492 
	C268.103149,392.846741 269.067352,396.045013 269.052551,398.516449 
	C269.037598,401.013092 268.164215,404.162964 272.569946,404.015106 
	C276.376160,403.887421 280.190277,403.995148 284.053162,404.445923 
	C283.814728,408.281403 283.524017,411.669830 282.753540,415.043976 
	C280.300690,415.021454 278.327576,415.005005 276.354492,415.006378 
	C269.179291,415.011414 268.905029,415.303772 269.161835,422.613678 
	C265.700165,422.678894 262.238525,422.744110 258.356079,422.322968 
	C258.055115,415.015686 258.055115,415.015167 251.330048,415.008118 
	C249.339661,415.006042 247.349258,415.007202 245.358871,415.007904 
	C237.797333,415.010437 237.797333,415.010620 238.159332,422.645966 
M238.125305,394.861908 
	C238.092438,396.852844 237.707870,398.927216 238.153290,400.804688 
	C238.439041,402.009125 239.893036,403.758057 240.917770,403.825348 
	C245.711746,404.140259 250.555923,404.167664 255.339203,403.774811 
	C256.320007,403.694275 257.877258,401.346832 257.834198,400.090027 
	C257.753784,397.743408 256.784546,393.451782 256.028473,393.417450 
	C250.179321,393.151703 244.292648,393.711578 238.125305,394.861908 
z"/>
<path fill="#EAEEEE" opacity="1.000000" stroke="none" 
	d="
M694.997559,403.646790 
	C689.683960,403.983978 684.520569,403.700592 679.406494,404.081024 
	C674.848816,404.420074 673.912292,402.596039 673.831482,398.377655 
	C673.743591,393.787933 675.434631,392.691406 679.640686,392.917419 
	C685.429443,393.228455 691.247437,392.996521 697.520752,392.999451 
	C697.048889,396.439484 696.109009,399.877289 694.997559,403.646790 
z"/>
<path fill="#EAEEEE" opacity="1.000000" stroke="none" 
	d="
M203.985306,393.393127 
	C210.311554,393.000549 216.620193,393.195190 222.909683,392.932251 
	C227.412384,392.743988 227.047424,395.544922 227.004608,398.446289 
	C226.963226,401.250946 227.603409,404.277222 223.007812,404.046539 
	C218.046066,403.797394 213.062576,403.981537 207.631165,403.977295 
	C206.102341,400.580170 205.030914,397.182373 203.985306,393.393127 
z"/>
<path fill="#EAEEEE" opacity="1.000000" stroke="none" 
	d="
M674.590210,422.739929 
	C673.757874,415.008148 673.757874,415.007629 681.163940,415.005188 
	C684.116821,415.004211 687.069641,415.006195 690.487427,415.006805 
	C690.063232,417.464722 689.174072,419.922699 688.075806,422.666016 
	C683.590027,422.904388 679.313354,422.857391 674.590210,422.739929 
z"/>
<path fill="#EBEDEC" opacity="1.000000" stroke="none" 
	d="
M211.034576,415.372498 
	C214.172958,415.005280 217.300323,415.000916 220.427673,415.004028 
	C227.041794,415.010620 227.041794,415.012238 226.897461,422.253784 
	C222.917297,422.739655 218.977386,422.814728 214.584076,422.920563 
	C213.094971,420.547150 212.059265,418.142914 211.034576,415.372498 
z"/>
<path fill="#B33625" opacity="1.000000" stroke="none" 
	d="
M288.082855,354.007751 
	C288.060425,353.011780 287.927979,352.003906 288.033966,351.021790 
	C288.584778,345.918335 289.138763,341.140503 284.426819,337.033569 
	C282.568451,335.413788 281.972748,331.584961 281.943695,328.750305 
	C281.756042,310.465210 281.884369,292.176849 282.532013,273.454987 
	C295.107391,273.032318 307.059845,273.044189 319.065613,273.516693 
	C319.129089,290.803040 319.138519,307.628815 319.149475,324.454559 
	C319.158936,338.935822 325.549988,345.134125 339.959930,344.895996 
	C347.442444,344.772369 352.340454,340.828735 355.996033,335.261108 
	C356.004608,338.832794 356.021515,341.931030 355.996704,345.407410 
	C355.806183,346.527069 355.657410,347.268585 355.352173,348.161469 
	C355.037659,348.586243 355.021851,348.867706 355.149384,349.147278 
	C355.150482,349.137451 355.177277,349.155273 354.882690,349.307495 
	C344.458344,361.895752 328.003723,360.335236 320.135376,346.255585 
	C319.919434,345.869110 318.675507,346.057129 317.893341,345.535736 
	C317.875732,342.368683 317.875732,339.643158 317.875732,335.463196 
	C312.446320,344.416840 304.608887,345.131348 296.204376,345.050232 
	C295.868561,349.340393 295.563507,353.237518 295.207397,357.158020 
	C295.156311,357.181396 295.093933,357.087921 294.743774,357.023560 
	C292.290039,355.975403 290.186462,354.991577 288.082855,354.007751 
z"/>
<path fill="#B23525" opacity="1.000000" stroke="none" 
	d="
M619.746704,273.010895 
	C619.886353,282.955139 620.067749,292.899048 620.152405,302.843781 
	C620.218872,310.650360 619.989075,318.463318 620.225098,326.263336 
	C620.395325,331.890503 619.066284,336.691559 614.943420,340.719299 
	C614.061584,341.580780 613.728455,343.321777 613.697510,344.670349 
	C613.633118,347.482300 613.939453,350.302734 613.715332,353.715576 
	C611.213074,355.228119 609.089050,356.144775 606.937256,357.101746 
	C606.909485,357.142059 606.819153,357.103790 606.848022,356.659302 
	C606.514771,352.516266 606.152588,348.817749 605.759644,344.804810 
	C597.027527,345.429718 589.608582,344.087738 584.212952,335.716736 
	C584.212952,339.942719 584.212952,342.992432 583.973572,345.874390 
	C583.359314,345.190918 582.984375,344.675232 583.150024,344.903076 
	C580.693665,347.935974 578.645142,351.809631 575.464294,354.133026 
	C566.958801,360.345581 554.661743,357.862213 546.758667,348.682648 
	C546.433044,347.239624 546.213318,346.122070 546.079346,344.569916 
	C546.387573,341.197235 546.609924,338.259125 546.930908,335.642731 
	C552.319031,344.059692 561.159241,347.055481 571.007141,344.089935 
	C578.793945,341.745026 582.837830,335.399506 582.849182,325.462341 
	C582.869202,307.998657 582.876709,290.534973 583.364563,273.048035 
	C595.808655,273.020142 607.777710,273.015533 619.746704,273.010895 
z"/>
<path fill="#E45439" opacity="1.000000" stroke="none" 
	d="
M319.012268,273.056091 
	C307.059845,273.044189 295.107391,273.032318 282.704468,273.015381 
	C298.883575,259.476593 315.468933,245.888092 332.151917,232.420471 
	C367.891602,203.569000 403.681732,174.779968 439.996185,145.968628 
	C440.806427,146.274033 441.071716,146.576172 441.118500,147.175919 
	C410.473083,178.833298 380.019287,210.167038 349.634491,241.567535 
	C339.604309,251.932953 329.752197,262.470673 319.613342,272.937531 
	C319.408020,272.945465 319.012268,273.056091 319.012268,273.056091 
z"/>
<path fill="#E45439" opacity="1.000000" stroke="none" 
	d="
M619.624146,272.714478 
	C607.777710,273.015533 595.808655,273.020142 583.147827,273.007141 
	C582.456055,272.989532 582.018005,272.941528 581.927124,272.621338 
	C549.431946,238.687134 517.011353,205.088760 484.635162,171.447708 
	C476.933716,163.445389 469.380554,155.300323 461.970001,146.977448 
	C462.305176,146.558990 462.429565,146.384003 462.553925,146.209015 
	C486.459900,165.391281 510.383026,184.552231 534.267395,203.761368 
	C562.696167,226.625290 591.091675,249.530609 619.624146,272.714478 
z"/>
<path fill="#E4543A" opacity="1.000000" stroke="none" 
	d="
M287.978180,354.414795 
	C290.186462,354.991577 292.290039,355.975403 294.752136,357.478973 
	C292.035248,400.950989 288.959839,443.903290 285.884399,486.855560 
	C280.726593,482.907837 278.853546,478.100281 279.551849,471.302216 
	C281.176178,455.490204 281.861603,439.581757 282.952759,422.850830 
	C283.063110,419.678925 283.148224,417.368561 283.233337,415.058228 
	C283.524017,411.669830 283.814728,408.281403 284.216736,404.074524 
	C284.511688,399.843689 284.695374,396.431305 284.879028,393.018951 
	C285.196198,389.609863 285.513367,386.200806 285.787415,382.372925 
	C286.454010,372.910065 287.163757,363.865936 287.978180,354.414795 
z"/>
<path fill="#E4553A" opacity="1.000000" stroke="none" 
	d="
M606.964966,357.061401 
	C609.089050,356.144775 611.213074,355.228119 613.644287,354.159851 
	C614.693176,363.029175 615.435059,372.050140 616.301208,381.515747 
	C616.622620,385.354828 616.819641,388.749298 617.027649,393.019348 
	C617.382507,397.257690 617.726379,400.620422 618.070251,403.983124 
	C618.259521,407.387207 618.448792,410.791321 618.674561,415.019653 
	C618.882874,418.168823 619.054749,420.493713 619.226562,422.818604 
	C620.452576,440.280884 621.678528,457.743134 622.970703,475.639984 
	C620.966858,479.416809 618.896790,482.759064 616.410767,485.734619 
	C614.787842,468.793732 613.544006,452.222107 612.382690,435.644684 
	C610.547729,409.452301 608.768005,383.256042 606.964966,357.061401 
z"/>
<path fill="#DF563D" opacity="1.000000" stroke="none" 
	d="
M462.102905,104.000534 
	C459.181030,103.988976 456.259125,103.977417 452.731018,103.592918 
	C452.247772,96.446327 452.370758,89.672676 452.493744,82.899025 
	C461.576721,82.899025 470.659729,82.899025 480.687744,82.899025 
	C480.687744,87.010384 480.687744,90.579216 480.820587,95.022156 
	C480.238739,98.361206 479.524078,100.826157 478.373230,103.247971 
	C472.658997,103.470062 467.380951,103.735298 462.102905,104.000534 
z"/>
<path fill="#B23626" opacity="1.000000" stroke="none" 
	d="
M478.809387,103.291092 
	C479.524078,100.826157 480.238739,98.361206 480.972076,95.460236 
	C490.058319,95.024208 499.125946,95.024208 509.327362,95.024208 
	C505.020905,98.766792 501.589264,101.749100 497.866302,104.984581 
	C501.475464,108.246552 504.852295,111.298553 509.088806,115.127548 
	C493.641296,115.127548 479.267548,115.127548 464.612732,114.744659 
	C465.702271,113.480873 467.153259,112.702110 468.428131,111.699448 
	C471.928070,108.946938 475.354126,106.100418 478.809387,103.291092 
z"/>
<path fill="#350704" opacity="1.000000" stroke="none" 
	d="
M452.492859,82.441238 
	C452.370758,89.672676 452.247772,96.446327 452.309204,103.660629 
	C452.498047,114.812447 452.502533,125.523598 452.010620,136.622009 
	C450.795471,137.069092 450.076721,137.128937 449.357971,137.188782 
	C449.357971,117.456131 449.357971,97.723465 449.357971,77.990799 
	C450.003723,77.888031 450.649475,77.785255 451.295197,77.682480 
	C451.694122,79.116135 452.093048,80.549789 452.492859,82.441238 
z"/>
<path fill="#852119" opacity="1.000000" stroke="none" 
	d="
M478.373230,103.247963 
	C475.354126,106.100418 471.928070,108.946938 468.428131,111.699448 
	C467.153259,112.702110 465.702271,113.480873 464.150818,114.647545 
	C463.369263,113.736549 462.419128,112.587914 462.246063,111.332176 
	C461.955902,109.226776 462.160919,107.053116 462.130219,104.454353 
	C467.380951,103.735298 472.658997,103.470062 478.373230,103.247963 
z"/>
<path fill="#F3C5BD" opacity="1.000000" stroke="none" 
	d="
M449.139160,137.330673 
	C450.076721,137.128937 450.795471,137.069092 452.048462,137.100769 
	C454.682587,139.200668 456.782440,141.209030 458.732605,143.607330 
	C458.582855,143.997238 458.106506,144.108276 457.961365,143.879425 
	C457.538788,144.441483 457.261322,145.232407 456.689758,146.043991 
	C456.002960,146.055206 455.610321,146.045746 454.978027,145.821503 
	C454.169373,144.481644 453.600342,143.356552 453.031311,142.231476 
	C452.685150,142.490402 452.339020,142.749329 451.704651,142.920654 
	C451.046661,142.988846 450.676849,143.144623 450.166107,143.135620 
	C449.541992,142.974701 449.058777,142.978577 448.197784,143.012085 
	C447.567719,143.056595 447.315491,143.071457 446.942627,142.895355 
	C446.660858,142.418869 446.417328,142.258194 446.093933,141.792160 
	C446.044434,141.079895 445.992371,140.797852 445.940308,140.515778 
	C446.933655,139.501373 447.927002,138.486969 449.139160,137.330673 
z"/>
<path fill="#A97E78" opacity="1.000000" stroke="none" 
	d="
M445.674927,140.735657 
	C445.992371,140.797852 446.044434,141.079895 445.886414,142.018555 
	C444.229858,144.076202 442.783417,145.477234 441.336975,146.878281 
	C441.071716,146.576172 440.806427,146.274033 440.301575,145.786346 
	C441.844513,144.052383 443.627045,142.503937 445.674927,140.735657 
z"/>
<path fill="#E45439" opacity="1.000000" stroke="none" 
	d="
M458.106506,144.108276 
	C458.106506,144.108276 458.582855,143.997238 458.815491,143.921768 
	C459.371307,143.963837 459.694489,144.081375 460.061890,144.538864 
	C460.106171,144.878815 459.811249,145.213776 459.526642,145.184814 
	C458.863525,144.806671 458.485016,144.457474 458.106506,144.108276 
z"/>
<path fill="#E45439" opacity="1.000000" stroke="none" 
	d="
M460.253815,144.711487 
	C460.703979,144.712051 461.006531,144.879929 461.257812,145.433960 
	C461.064117,145.953506 460.921661,146.086899 460.541290,146.138321 
	C460.139343,145.775497 459.975311,145.494629 459.811249,145.213776 
	C459.811249,145.213776 460.106171,144.878815 460.253815,144.711487 
z"/>
<path fill="#E45439" opacity="1.000000" stroke="none" 
	d="
M461.429749,145.630630 
	C461.896088,145.556732 462.111572,145.710983 462.426636,146.056458 
	C462.429565,146.384003 462.305176,146.558990 461.735229,146.891846 
	C460.991943,146.851746 460.821777,146.575272 460.779175,146.220291 
	C460.921661,146.086899 461.064117,145.953506 461.429749,145.630630 
z"/>
<path fill="#9E2D1E" opacity="1.000000" stroke="none" 
	d="
M507.996246,512.956299 
	C477.899506,513.598511 447.804718,514.390320 417.704712,514.778625 
	C410.093231,514.876831 402.465118,513.687439 394.423523,512.577820 
	C395.415283,487.334015 396.828156,462.602081 398.681488,437.910278 
	C410.204285,437.613953 421.286682,437.280914 432.368652,436.932617 
	C433.027100,436.911926 433.680603,436.702271 434.338196,436.691650 
	C445.426971,436.512177 456.521210,436.061737 467.603577,436.262543 
	C479.656708,436.480927 491.698822,437.308014 503.817200,438.338501 
	C503.985168,442.637848 503.970734,446.474945 504.196594,450.297791 
	C505.430573,471.185883 506.723541,492.070496 507.996246,512.956299 
z"/>
<path fill="#E45237" opacity="1.000000" stroke="none" 
	d="
M546.864563,349.008087 
	C554.661743,357.862213 566.958801,360.345581 575.464294,354.133026 
	C578.645142,351.809631 580.693665,347.935974 583.150024,344.903076 
	C582.984375,344.675232 583.359314,345.190918 584.173767,346.145752 
	C584.756897,347.722015 584.900452,348.859131 585.031128,350.455322 
	C585.067200,352.574982 585.056274,354.239838 585.173767,355.895630 
	C588.510681,402.941589 591.860535,449.986603 595.208252,497.031799 
	C582.963318,500.288361 570.718323,503.544952 558.036743,506.403503 
	C557.421387,503.854828 557.220459,501.705750 557.067078,499.553284 
	C554.778809,467.427368 552.440552,435.304871 550.235413,403.173187 
	C548.996826,385.126068 547.980835,367.063629 546.864563,349.008087 
z"/>
<path fill="#E45237" opacity="1.000000" stroke="none" 
	d="
M317.910950,345.977295 
	C318.675507,346.057129 319.919434,345.869110 320.135376,346.255585 
	C328.003723,360.335236 344.458344,361.895752 354.990082,349.753784 
	C354.595154,358.952393 353.646454,367.846649 353.041260,376.764221 
	C352.344025,387.038574 352.143280,397.347870 351.381836,407.616394 
	C350.061035,425.428436 348.311462,443.209259 347.049652,461.024963 
	C345.969452,476.276978 345.320587,491.559570 344.480927,506.828613 
	C332.134033,503.741699 319.787170,500.654816 307.213013,496.876953 
	C308.826843,469.982605 310.698761,443.781342 312.499542,417.575134 
	C314.049225,395.022705 315.517700,372.464722 317.097961,349.564331 
	C317.244629,348.755066 317.315399,348.290649 317.535583,347.634216 
	C317.766785,346.960022 317.848541,346.477936 317.936096,345.991119 
	C317.941895,345.986420 317.910950,345.977264 317.910950,345.977295 
z"/>
<path fill="#FFFDFD" opacity="1.000000" stroke="none" 
	d="
M546.758667,348.682648 
	C547.980835,367.063629 548.996826,385.126068 550.235413,403.173187 
	C552.440552,435.304871 554.778809,467.427368 557.067078,499.553284 
	C557.220459,501.705750 557.421387,503.854828 557.622192,506.412933 
	C546.106750,508.489532 534.569214,510.158661 522.604248,511.388885 
	C520.612976,488.595001 519.047058,466.240204 517.485718,443.885071 
	C515.346313,413.251770 513.210327,382.618225 511.407288,352.070221 
	C523.866577,361.580750 536.491699,359.136414 544.373291,345.883301 
	C544.643127,345.429626 545.441467,345.290283 545.993530,345.004456 
	C546.213318,346.122070 546.433044,347.239624 546.758667,348.682648 
z"/>
<path fill="#FFFEFD" opacity="1.000000" stroke="none" 
	d="
M344.848755,506.908966 
	C345.320587,491.559570 345.969452,476.276978 347.049652,461.024963 
	C348.311462,443.209259 350.061035,425.428436 351.381836,407.616394 
	C352.143280,397.347870 352.344025,387.038574 353.041260,376.764221 
	C353.646454,367.846649 354.595154,358.952393 355.284668,349.601562 
	C355.177277,349.155273 355.150482,349.137451 355.335022,349.013733 
	C355.683960,348.594635 355.680328,348.301361 355.508636,348.010132 
	C355.657410,347.268585 355.806183,346.527069 356.346924,345.405396 
	C361.139648,354.444794 368.501495,358.884949 378.773132,356.964111 
	C382.987091,356.176086 386.884644,353.696167 390.954224,352.437622 
	C387.253143,405.870514 383.523956,458.851685 379.794739,511.832825 
	C368.268677,510.218323 356.742615,508.603821 344.848755,506.908966 
z"/>
<path fill="#FEFCFC" opacity="1.000000" stroke="none" 
	d="
M595.576050,497.007568 
	C591.860535,449.986603 588.510681,402.941589 585.173767,355.895630 
	C585.056274,354.239838 585.067200,352.574982 585.338806,350.586700 
	C591.020447,357.771881 598.928101,357.412231 606.819153,357.103790 
	C606.819153,357.103790 606.909485,357.142059 606.937256,357.101746 
	C608.768005,383.256042 610.547729,409.452301 612.382690,435.644684 
	C613.544006,452.222107 614.787842,468.793732 616.079346,485.842346 
	C609.423889,489.872284 602.683899,493.427826 595.576050,497.007568 
z"/>
<path fill="#FFFDFC" opacity="1.000000" stroke="none" 
	d="
M317.022095,349.909180 
	C315.517700,372.464722 314.049225,395.022705 312.499542,417.575134 
	C310.698761,443.781342 308.826843,469.982605 306.937500,496.637360 
	C302.507690,495.386505 298.126190,493.684326 293.381073,491.921753 
	C293.017456,491.861389 292.986542,491.945923 292.848267,491.690247 
	C292.136108,491.109558 291.562164,490.784546 290.988251,490.459564 
	C289.466003,489.377380 287.943787,488.295197 286.152985,487.034271 
	C288.959839,443.903290 292.035248,400.950989 295.102295,357.543335 
	C295.093933,357.087921 295.156311,357.181396 295.651245,357.174561 
	C304.166626,357.801971 311.622925,356.813843 317.022095,349.909180 
z"/>
<path fill="#E35237" opacity="1.000000" stroke="none" 
	d="
M511.072845,351.984772 
	C513.210327,382.618225 515.346313,413.251770 517.485718,443.885071 
	C519.047058,466.240204 520.612976,488.595001 522.190613,511.391968 
	C517.768433,512.233948 513.332520,512.633911 508.446411,512.995117 
	C506.723541,492.070496 505.430573,471.185883 504.196594,450.297791 
	C503.970734,446.474945 503.985168,442.637848 503.869019,437.961914 
	C503.812958,436.102173 503.776550,435.087860 503.725830,433.841217 
	C503.625916,433.300049 503.462585,433.039978 503.233337,432.372040 
	C502.631775,420.669495 502.001495,409.424591 501.409210,398.177673 
	C500.652405,383.807648 499.926300,369.436005 499.453583,354.874451 
	C502.549591,351.356659 505.378967,348.029510 507.913361,345.049225 
	C508.536804,346.106384 509.660309,348.011475 510.847870,350.259705 
	C510.965607,351.063477 511.019226,351.524109 511.072845,351.984772 
z"/>
<path fill="#E35237" opacity="1.000000" stroke="none" 
	d="
M380.227325,511.901093 
	C383.523956,458.851685 387.253143,405.870514 391.021545,352.089203 
	C391.131317,350.819946 391.201904,350.350830 391.524109,349.699310 
	C392.620087,347.948425 393.464508,346.379974 394.025024,345.338867 
	C396.807556,348.207397 399.589722,351.075531 402.364990,354.417664 
	C400.985718,382.551117 399.613373,410.210663 398.241028,437.870178 
	C396.828156,462.602081 395.415283,487.334015 394.003052,512.510803 
	C389.555756,512.626892 385.107849,512.298157 380.227325,511.901093 
z"/>
<path fill="#ECEFEF" opacity="1.000000" stroke="none" 
	d="
M238.608429,422.720917 
	C237.797333,415.010620 237.797333,415.010437 245.358871,415.007904 
	C247.349258,415.007202 249.339661,415.006042 251.330048,415.008118 
	C258.055115,415.015167 258.055115,415.015686 257.889709,422.246521 
	C251.581940,422.702911 245.319748,422.749390 238.608429,422.720917 
z"/>
<path fill="#EAEEEE" opacity="1.000000" stroke="none" 
	d="
M282.753540,415.043976 
	C283.148224,417.368561 283.063110,419.678925 282.882690,422.407593 
	C278.539825,422.814087 274.292236,422.802246 269.603271,422.702026 
	C268.905029,415.303772 269.179291,415.011414 276.354492,415.006378 
	C278.327576,415.005005 280.300690,415.021454 282.753540,415.043976 
z"/>
<path fill="#848484" opacity="1.000000" stroke="none" 
	d="
M291.145294,490.769592 
	C291.562164,490.784546 292.136108,491.109558 292.888306,491.710876 
	C292.478485,491.684662 291.890411,491.382141 291.145294,490.769592 
z"/>
<path fill="#ECEFEF" opacity="1.000000" stroke="none" 
	d="
M642.619446,422.688080 
	C642.101807,415.465088 642.537354,415.014771 649.522705,415.008453 
	C651.496094,415.006653 653.469482,415.006256 655.442871,415.008575 
	C662.072693,415.016388 662.072693,415.016968 661.893311,422.248291 
	C655.585388,422.697845 649.325378,422.737427 642.619446,422.688080 
z"/>
<path fill="#ECEFEF" opacity="1.000000" stroke="none" 
	d="
M619.671387,422.828918 
	C619.054749,420.493713 618.882874,418.168823 618.793457,415.408936 
	C620.698486,414.985382 622.521057,415.003571 624.343628,415.006989 
	C631.055298,415.019531 631.055298,415.017670 630.889404,422.245239 
	C627.267822,422.716217 623.691956,422.777710 619.671387,422.828918 
z"/>
<path fill="#ECEFEF" opacity="1.000000" stroke="none" 
	d="
M642.972412,398.957642 
	C642.254211,394.074158 644.151123,392.435577 648.527832,392.945984 
	C650.986389,393.232758 653.538147,393.253448 655.990967,392.943329 
	C660.829285,392.331512 662.314087,394.209229 662.164429,399.028870 
	C662.040222,403.028809 660.786865,404.367004 656.923767,404.044373 
	C653.789062,403.782593 650.601868,403.809052 647.462097,404.038208 
	C643.920959,404.296661 642.542236,402.830353 642.972412,398.957642 
z"/>
<path fill="#EBEDEC" opacity="1.000000" stroke="none" 
	d="
M618.530457,403.987061 
	C617.726379,400.620422 617.382507,397.257690 617.101379,393.458374 
	C620.469727,393.013733 623.786377,393.173187 627.078369,392.957306 
	C631.693115,392.654724 630.949036,395.816284 631.012878,398.572174 
	C631.080139,401.477692 631.394043,404.413849 626.920898,404.033813 
	C624.295227,403.810730 621.635193,403.991760 618.530457,403.987061 
z"/>
<path fill="#ECEFEF" opacity="1.000000" stroke="none" 
	d="
M238.271454,394.438812 
	C244.292648,393.711578 250.179321,393.151703 256.028473,393.417450 
	C256.784546,393.451782 257.753784,397.743408 257.834198,400.090027 
	C257.877258,401.346832 256.320007,403.694275 255.339203,403.774811 
	C250.555923,404.167664 245.711746,404.140259 240.917770,403.825348 
	C239.893036,403.758057 238.439041,402.009125 238.153290,400.804688 
	C237.707870,398.927216 238.092438,396.852844 238.271454,394.438812 
z"/>
<path fill="#EBEDEC" opacity="1.000000" stroke="none" 
	d="
M284.419800,393.011169 
	C284.695374,396.431305 284.511688,399.843689 284.164459,403.627441 
	C280.190277,403.995148 276.376160,403.887421 272.569946,404.015106 
	C268.164215,404.162964 269.037598,401.013092 269.052551,398.516449 
	C269.067352,396.045013 268.103149,392.846741 272.529449,392.979492 
	C276.336639,393.093719 280.149933,393.003326 284.419800,393.011169 
z"/>
<path fill="#C1C0C0" opacity="1.000000" stroke="none" 
	d="
M319.065613,273.516693 
	C319.012268,273.056091 319.408020,272.945465 320.094299,272.966797 
	C332.504730,273.032288 344.228912,273.076477 355.970032,273.577637 
	C356.002167,291.390808 356.017395,308.747009 356.021057,326.485718 
	C356.314880,328.575317 356.620300,330.282379 356.685669,332.192078 
	C356.298553,333.192352 356.151459,333.990021 356.004395,334.787659 
	C352.340454,340.828735 347.442444,344.772369 339.959930,344.895996 
	C325.549988,345.134125 319.158936,338.935822 319.149475,324.454559 
	C319.138519,307.628815 319.129089,290.803040 319.065613,273.516693 
z"/>
<path fill="#C1908C" opacity="1.000000" stroke="none" 
	d="
M355.996033,335.261108 
	C356.151459,333.990021 356.298553,333.192352 356.931702,332.437653 
	C359.787201,339.935669 364.983887,343.991486 372.648499,344.822845 
	C379.801880,345.598724 386.353424,344.092560 392.176788,337.467438 
	C391.799255,342.650543 391.535889,346.266144 391.272522,349.881744 
	C391.201904,350.350830 391.131317,350.819946 390.993439,351.637451 
	C386.884644,353.696167 382.987091,356.176086 378.773132,356.964111 
	C368.501495,358.884949 361.139648,354.444794 356.388641,345.027252 
	C356.021515,341.931030 356.004608,338.832794 355.996033,335.261108 
z"/>
<path fill="#C08F8A" opacity="1.000000" stroke="none" 
	d="
M317.097961,349.564331 
	C311.622925,356.813843 304.166626,357.801971 295.702332,357.151184 
	C295.563507,353.237518 295.868561,349.340393 296.204376,345.050232 
	C304.608887,345.131348 312.446320,344.416840 317.875732,335.463196 
	C317.875732,339.643158 317.875732,342.368683 317.893341,345.535706 
	C317.910950,345.977264 317.941895,345.986420 317.747223,346.167908 
	C317.497070,346.841675 317.441620,347.333984 317.386139,347.826263 
	C317.315399,348.290649 317.244629,348.755066 317.097961,349.564331 
z"/>
<path fill="#E45237" opacity="1.000000" stroke="none" 
	d="
M355.352173,348.161469 
	C355.680328,348.301361 355.683960,348.594635 355.333923,349.023560 
	C355.021851,348.867706 355.037659,348.586243 355.352173,348.161469 
z"/>
<path fill="#C1C0C0" opacity="1.000000" stroke="none" 
	d="
M582.018005,272.941528 
	C582.018005,272.941528 582.456055,272.989532 582.672729,273.030396 
	C582.876709,290.534973 582.869202,307.998657 582.849182,325.462341 
	C582.837830,335.399506 578.793945,341.745026 571.007141,344.089935 
	C561.159241,347.055481 552.319031,344.059692 546.899780,335.333496 
	C546.209961,334.131134 545.650024,333.559753 545.048767,332.549194 
	C545.078064,330.050049 545.148621,327.990173 545.446106,325.592957 
	C545.797546,307.877258 545.922119,290.498901 546.511230,273.086182 
	C558.656494,273.015015 570.337280,272.978271 582.018005,272.941528 
z"/>
<path fill="#C1908C" opacity="1.000000" stroke="none" 
	d="
M545.090088,332.988403 
	C545.650024,333.559753 546.209961,334.131134 546.801086,335.011780 
	C546.609924,338.259125 546.387573,341.197235 546.079346,344.569885 
	C545.441467,345.290283 544.643127,345.429626 544.373291,345.883301 
	C536.491699,359.136414 523.866577,361.580750 511.407288,352.070221 
	C511.019226,351.524109 510.965607,351.063477 510.881897,349.850220 
	C510.564453,345.717926 510.277069,342.338257 510.051392,339.684052 
	C514.746216,341.467072 519.124084,344.002716 523.781372,344.717102 
	C533.538391,346.213715 540.768799,341.957825 545.090088,332.988403 
z"/>
<path fill="#C08F8A" opacity="1.000000" stroke="none" 
	d="
M606.848022,356.659302 
	C598.928101,357.412231 591.020447,357.771881 585.351685,350.127686 
	C584.900452,348.859131 584.756897,347.722015 584.413147,346.313507 
	C584.212952,342.992432 584.212952,339.942719 584.212952,335.716736 
	C589.608582,344.087738 597.027527,345.429718 605.759644,344.804810 
	C606.152588,348.817749 606.514771,352.516266 606.848022,356.659302 
z"/>
<path fill="#FFFCFC" opacity="1.000000" stroke="none" 
	d="
M355.953064,273.120667 
	C344.228912,273.076477 332.504730,273.032288 320.299622,272.958862 
	C329.752197,262.470673 339.604309,251.932953 349.634491,241.567535 
	C380.019287,210.167038 410.473083,178.833298 441.118469,147.175903 
	C442.783417,145.477234 444.229858,144.076202 445.883850,142.448776 
	C446.417328,142.258194 446.660858,142.418869 446.804901,143.203918 
	C432.774902,163.892319 418.734833,184.062424 404.756226,204.275070 
	C388.986359,227.077759 373.271851,249.918732 357.384247,272.798828 
	C357.235260,272.854614 356.959290,273.015198 356.706207,273.027008 
	C356.286438,273.066101 356.119751,273.093384 355.953064,273.120667 
z"/>
<path fill="#FFFCFC" opacity="1.000000" stroke="none" 
	d="
M581.927124,272.621338 
	C570.337280,272.978271 558.656494,273.015015 546.261169,273.044769 
	C545.377991,273.030151 545.209412,273.022522 544.904785,272.936584 
	C544.768799,272.858215 544.474976,272.747650 544.351990,272.419373 
	C538.474731,263.723541 532.744507,255.339371 526.961975,246.991379 
	C503.644653,213.329300 480.311279,179.678360 456.983856,146.023315 
	C457.261322,145.232407 457.538788,144.441483 457.961365,143.879425 
	C458.485016,144.457474 458.863525,144.806671 459.526642,145.184814 
	C459.975311,145.494629 460.139343,145.775497 460.541290,146.138321 
	C460.821777,146.575272 460.991943,146.851746 461.524475,147.135284 
	C469.380554,155.300323 476.933716,163.445389 484.635162,171.447708 
	C517.011353,205.088760 549.431946,238.687134 581.927124,272.621338 
z"/>
<path fill="#FFFCFC" opacity="1.000000" stroke="none" 
	d="
M448.575592,142.982452 
	C449.058777,142.978577 449.541992,142.974701 450.125031,143.554764 
	C446.649078,169.816544 443.115845,195.500427 439.482544,221.170135 
	C437.037750,238.443161 434.451477,255.696167 431.463989,272.977661 
	C419.018066,272.981079 407.036682,272.964935 395.049347,272.579651 
	C412.887482,229.134491 430.731537,186.058472 448.575592,142.982452 
z"/>
<path fill="#FFFCFC" opacity="1.000000" stroke="none" 
	d="
M451.992859,143.008255 
	C452.339020,142.749329 452.685150,142.490402 453.031311,142.231476 
	C453.600342,143.356552 454.169373,144.481644 454.966248,146.174438 
	C467.130920,175.579361 479.110199,204.399109 490.985565,233.261581 
	C496.410828,246.447372 501.631317,259.717407 506.479553,272.971893 
	C494.027710,272.986176 482.040985,272.977814 469.938843,272.582367 
	C467.005127,252.151581 464.144531,232.113708 461.379608,212.062653 
	C458.206421,189.050613 455.118073,166.026901 451.992859,143.008255 
z"/>
<path fill="#E35339" opacity="1.000000" stroke="none" 
	d="
M451.704681,142.920654 
	C455.118073,166.026901 458.206421,189.050613 461.379608,212.062653 
	C464.144531,232.113708 467.005127,252.151581 469.793854,272.596191 
	C469.764252,272.997131 469.480408,273.063599 469.046936,273.046448 
	C456.562439,273.029633 444.511414,273.029999 432.329346,272.997925 
	C432.198334,272.965454 431.928497,272.958130 431.928497,272.958130 
	C434.451477,255.696167 437.037750,238.443161 439.482544,221.170135 
	C443.115845,195.500427 446.649078,169.816544 450.265961,143.719559 
	C450.676849,143.144623 451.046661,142.988846 451.704681,142.920654 
z"/>
<path fill="#E3543A" opacity="1.000000" stroke="none" 
	d="
M448.197784,143.012085 
	C430.731537,186.058472 412.887482,229.134491 394.881592,272.629700 
	C394.719788,273.048889 394.380615,273.135376 393.889496,273.096069 
	C381.443329,272.952209 369.488281,272.847626 357.533234,272.743042 
	C373.271851,249.918732 388.986359,227.077759 404.756226,204.275070 
	C418.734833,184.062424 432.774902,163.892319 446.925537,143.394867 
	C447.315491,143.071457 447.567719,143.056595 448.197784,143.012085 
z"/>
<path fill="#E3543A" opacity="1.000000" stroke="none" 
	d="
M506.944641,272.949249 
	C501.631317,259.717407 496.410828,246.447372 490.985565,233.261581 
	C479.110199,204.399109 467.130920,175.579361 455.205872,146.389221 
	C455.610321,146.045746 456.002960,146.055206 456.689758,146.044006 
	C480.311279,179.678360 503.644653,213.329300 526.961975,246.991379 
	C532.744507,255.339371 538.474731,263.723541 543.852539,272.485352 
	C531.523865,272.964935 519.571594,273.050293 507.449829,273.092163 
	C507.280273,273.048645 506.944641,272.949249 506.944641,272.949249 
z"/>
<path fill="#6B1912" opacity="1.000000" stroke="none" 
	d="
M398.681488,437.910278 
	C399.613373,410.210663 400.985718,382.551117 402.554382,354.088562 
	C403.167358,349.977936 403.584045,346.670319 404.412415,343.505829 
	C418.897369,347.351837 426.914185,343.894958 432.262878,332.169128 
	C436.237030,341.465515 441.425293,344.725342 451.101562,345.020966 
	C460.817139,345.317810 466.295502,340.034821 470.144257,332.236389 
	C472.426544,338.735321 476.280762,343.522675 482.966095,344.227692 
	C487.892242,344.747162 492.982819,343.707306 498.050323,343.808807 
	C498.462677,347.858612 498.824799,351.461823 499.186951,355.065063 
	C499.926300,369.436005 500.652405,383.807648 501.409210,398.177673 
	C502.001495,409.424591 502.631775,420.669495 503.229248,432.610657 
	C503.293915,433.627106 503.469543,433.882935 503.740173,434.073517 
	C503.776550,435.087860 503.812958,436.102173 503.797546,437.493103 
	C491.698822,437.308014 479.656708,436.480927 467.603577,436.262543 
	C456.521210,436.061737 445.426971,436.512177 434.338196,436.691650 
	C433.680603,436.702271 433.027100,436.911926 432.368652,436.932617 
	C421.286682,437.280914 410.204285,437.613953 398.681488,437.910278 
z"/>
<path fill="#E45439" opacity="1.000000" stroke="none" 
	d="
M317.535583,347.634216 
	C317.441620,347.333984 317.497070,346.841675 317.741455,346.172607 
	C317.848541,346.477936 317.766785,346.960022 317.535583,347.634216 
z"/>
<path fill="#B23525" opacity="1.000000" stroke="none" 
	d="
M499.453583,354.874451 
	C498.824799,351.461823 498.462677,347.858612 498.290466,343.626770 
	C505.548706,339.259491 507.622650,332.933319 507.615753,325.486786 
	C507.599609,308.036407 507.616089,290.586029 507.619354,273.135681 
	C519.571594,273.050293 531.523865,272.964935 543.975525,272.813599 
	C544.474976,272.747650 544.768799,272.858215 544.893250,273.402893 
	C545.084900,291.275146 545.152100,308.602692 545.219238,325.930267 
	C545.148621,327.990173 545.078064,330.050049 545.048767,332.549194 
	C540.768799,341.957825 533.538391,346.213715 523.781372,344.717102 
	C519.124084,344.002716 514.746216,341.467072 510.051392,339.684052 
	C510.277069,342.338257 510.564453,345.717926 510.817810,349.507080 
	C509.660309,348.011475 508.536804,346.106384 507.913361,345.049225 
	C505.378967,348.029510 502.549591,351.356659 499.453583,354.874451 
z"/>
<path fill="#9E2D1E" opacity="1.000000" stroke="none" 
	d="
M503.725830,433.841217 
	C503.469543,433.882935 503.293915,433.627106 503.217407,433.067383 
	C503.462585,433.039978 503.625916,433.300049 503.725830,433.841217 
z"/>
<path fill="#B23525" opacity="1.000000" stroke="none" 
	d="
M404.000732,343.362701 
	C403.584045,346.670319 403.167358,349.977936 402.561279,353.614624 
	C399.589722,351.075531 396.807556,348.207397 394.025024,345.338867 
	C393.464508,346.379974 392.620087,347.948425 391.524109,349.699310 
	C391.535889,346.266144 391.799255,342.650543 392.176788,337.467438 
	C386.353424,344.092560 379.801880,345.598724 372.648499,344.822845 
	C364.983887,343.991486 359.787201,339.935669 357.171753,332.234985 
	C356.620300,330.282379 356.314880,328.575317 356.377869,326.234192 
	C356.817230,308.071808 356.888275,290.543518 356.959290,273.015198 
	C356.959290,273.015198 357.235260,272.854614 357.384247,272.798828 
	C369.488281,272.847626 381.443329,272.952209 393.897217,273.553772 
	C394.393768,291.045319 394.443329,308.040070 394.366241,325.034271 
	C394.330505,332.913818 396.585266,339.461853 404.000732,343.362701 
z"/>
<path fill="#D1D1D1" opacity="1.000000" stroke="none" 
	d="
M356.706238,273.027008 
	C356.888275,290.543518 356.817230,308.071808 356.389404,325.851654 
	C356.017395,308.747009 356.002167,291.390808 355.970032,273.577637 
	C356.119751,273.093384 356.286438,273.066101 356.706238,273.027008 
z"/>
<path fill="#D1D1D1" opacity="1.000000" stroke="none" 
	d="
M545.446106,325.592957 
	C545.152100,308.602692 545.084900,291.275146 545.029236,273.481262 
	C545.209412,273.022522 545.377991,273.030151 545.796631,273.079163 
	C545.922119,290.498901 545.797546,307.877258 545.446106,325.592957 
z"/>
<path fill="#C1C1C0" opacity="1.000000" stroke="none" 
	d="
M404.412415,343.505829 
	C396.585266,339.461853 394.330505,332.913818 394.366241,325.034271 
	C394.443329,308.040070 394.393768,291.045319 394.388306,273.593079 
	C394.380615,273.135376 394.719788,273.048889 394.887512,272.998840 
	C407.036682,272.964935 419.018066,272.981079 431.463989,272.977661 
	C431.928497,272.958130 432.198334,272.965454 432.214600,273.448547 
	C432.158997,293.262451 432.087097,312.593292 432.015228,331.924133 
	C426.914185,343.894958 418.897369,347.351837 404.412415,343.505829 
z"/>
<path fill="#C1C1C0" opacity="1.000000" stroke="none" 
	d="
M507.449829,273.092163 
	C507.616089,290.586029 507.599609,308.036407 507.615753,325.486786 
	C507.622650,332.933319 505.548706,339.259491 498.240295,343.180176 
	C492.982819,343.707306 487.892242,344.747162 482.966095,344.227692 
	C476.280762,343.522675 472.426544,338.735321 470.179077,331.778931 
	C469.921295,325.955048 469.787048,320.907013 469.729797,315.410156 
	C469.729309,302.015869 469.651855,289.070343 469.640808,275.741333 
	C469.631622,274.593109 469.556030,273.828369 469.480408,273.063599 
	C469.480408,273.063599 469.764252,272.997131 469.909241,272.983276 
	C482.040985,272.977814 494.027710,272.986176 506.479553,272.971893 
	C506.944641,272.949249 507.280273,273.048645 507.449829,273.092163 
z"/>
<path fill="#B23424" opacity="1.000000" stroke="none" 
	d="
M469.652832,315.858948 
	C469.787048,320.907013 469.921295,325.955048 470.020691,331.460571 
	C466.295502,340.034821 460.817139,345.317810 451.101562,345.020966 
	C441.425293,344.725342 436.237030,341.465515 432.262878,332.169128 
	C432.087097,312.593292 432.158997,293.262451 432.345642,273.480988 
	C444.511414,273.029999 456.562439,273.029633 469.046967,273.046448 
	C469.556030,273.828369 469.631622,274.593109 469.463318,276.093506 
	C469.147217,283.601685 468.964966,290.375305 469.035278,297.146362 
	C469.100067,303.385376 469.436218,309.621521 469.652832,315.858948 
z"/>
<path fill="#E35339" opacity="1.000000" stroke="none" 
	d="
M469.729797,315.410156 
	C469.436218,309.621521 469.100067,303.385376 469.035278,297.146362 
	C468.964966,290.375305 469.147217,283.601685 469.396881,276.476990 
	C469.651855,289.070343 469.729309,302.015869 469.729797,315.410156 
z"/>
</svg>