<svg version="1.1" id="Layer_1" xmlns="http://www.w3.org/2000/svg" xmlns:xlink="http://www.w3.org/1999/xlink" x="0px" y="0px"
	 width="100%" viewBox="0 0 900 650" enable-background="new 0 0 900 650" xml:space="preserve">
<path fill="#BA4C63" opacity="1.000000" stroke="none" 
	d="
M654.000000,651.000000 
	C436.000000,651.000000 218.500000,651.000000 1.000000,651.000000 
	C1.000000,434.333344 1.000000,217.666672 1.000000,1.000000 
	C301.000000,1.000000 601.000000,1.000000 901.000000,1.000000 
	C901.000000,217.666672 901.000000,434.333344 901.000000,651.000000 
	C818.833313,651.000000 736.666687,651.000000 654.000000,651.000000 
M646.384216,491.533478 
	C660.504578,475.199890 672.359619,457.325867 681.393188,437.748901 
	C686.528625,426.619720 690.458801,414.934418 695.271606,402.895264 
	C707.067200,365.929962 710.205872,328.125488 704.572998,289.853241 
	C694.867310,223.908722 664.252136,169.236511 612.460754,127.294174 
	C554.682861,80.503662 488.146301,62.429798 414.641541,72.546959 
	C352.144043,81.149071 300.026703,110.157043 258.186066,157.385452 
	C243.542236,173.914948 231.139709,192.019394 221.299759,212.574402 
	C205.208969,245.569748 196.029633,280.285492 194.977066,317.088837 
	C193.759354,359.665924 202.075027,400.196594 220.812134,438.486389 
	C233.131348,463.661072 248.985870,486.361847 269.370880,506.597778 
	C273.858398,510.809814 278.205597,515.184387 282.860016,519.203125 
	C296.105713,530.639648 310.055573,541.100769 326.164490,549.638794 
	C360.240753,568.943848 396.951447,579.613525 435.942413,581.727783 
	C491.667114,584.749451 543.319275,571.396912 590.284851,540.982239 
	C611.224060,527.422180 630.104858,511.421356 646.384216,491.533478 
z"/>
<path fill="#25725D" opacity="1.000000" stroke="none" 
	d="
M269.050140,506.030518 
	C248.985870,486.361847 233.131348,463.661072 220.812134,438.486389 
	C202.075027,400.196594 193.759354,359.665924 194.977066,317.088837 
	C196.029633,280.285492 205.208969,245.569748 221.962677,212.326111 
	C228.571152,211.430771 234.548325,210.974442 240.439285,209.997864 
	C241.850616,209.763916 243.672394,208.004074 244.089233,206.587997 
	C245.018265,203.431992 244.953690,199.998657 245.687836,196.767822 
	C254.014084,160.125610 296.223297,142.798660 328.154388,162.866226 
	C329.760162,163.875397 331.381500,164.859787 333.294250,166.040009 
	C334.178497,163.795609 334.778442,162.261398 335.386719,160.730484 
	C344.407623,138.024872 367.783051,121.670151 391.299896,121.017654 
	C415.365021,120.349953 434.278259,129.593872 448.070557,149.272171 
	C449.812500,151.757568 451.467377,152.190231 454.349091,151.042435 
	C477.319397,141.893204 497.611145,145.783844 515.154480,163.578812 
	C516.992615,165.443344 520.174500,166.414307 522.890869,166.880829 
	C526.956482,167.579102 531.281494,166.912964 535.288452,167.783401 
	C556.839355,172.464966 572.054260,191.468628 571.774902,213.529678 
	C571.708069,218.809784 572.897644,222.301056 577.458313,225.599716 
	C585.904663,231.708817 589.975098,240.807877 592.048767,250.938126 
	C592.638184,253.817657 593.863525,256.969788 595.786377,259.106964 
	C606.724121,271.263611 612.272156,285.163971 610.285461,301.600433 
	C609.853088,305.177765 611.644836,305.717529 614.351318,306.349396 
	C637.030945,311.644379 649.395081,335.236023 645.126221,353.335144 
	C644.295410,356.857727 643.326782,360.347809 642.229431,364.597565 
	C664.040894,369.102783 678.025391,381.961670 682.770386,403.933044 
	C675.066040,407.140381 667.744080,410.239899 660.618469,413.256287 
	C659.173401,374.545868 623.711914,356.404663 597.956665,361.527100 
	C597.340332,354.679840 593.399597,350.316254 588.891296,346.149933 
	C546.355042,306.840118 503.875427,267.469055 461.363739,228.132645 
	C453.356049,220.723053 443.928467,220.322449 435.776703,227.451416 
	C427.511627,234.679474 419.600708,242.311874 411.512909,249.743484 
	C406.697906,254.167786 401.840942,258.546387 397.002869,262.945526 
	C396.557556,262.745636 396.112274,262.545715 395.666962,262.345825 
	C395.666962,257.763641 395.815704,253.175446 395.630310,248.600769 
	C395.383148,242.501999 393.032471,240.339493 386.662598,240.256287 
	C384.551331,241.712875 382.766602,243.114120 380.756104,244.232544 
	C378.116699,242.689529 375.703156,241.429367 372.929077,240.175018 
	C370.720062,241.469818 368.871582,242.758789 366.812866,243.779694 
	C364.055115,242.487396 361.507568,241.463150 358.573669,240.503113 
	C354.418457,241.671432 352.998016,244.441757 353.003510,248.096466 
	C353.031158,266.469666 353.096375,284.842773 352.975037,303.496765 
	C351.494385,305.057983 350.216492,306.369965 348.875397,307.613861 
	C334.110870,321.308228 319.269165,334.920349 304.591461,348.707092 
	C296.496216,356.310944 296.256897,366.656860 303.815430,374.597076 
	C305.312073,375.912872 306.650909,376.953033 307.907440,378.366577 
	C303.913361,388.698151 306.096283,394.246521 316.377075,400.476257 
	C302.249512,408.544769 302.221100,420.163300 316.393585,429.592041 
	C310.031464,432.362183 305.973175,436.824493 306.022675,444.061188 
	C306.071106,451.142578 310.515533,455.323059 316.576996,458.410614 
	C306.898071,463.432159 304.744141,468.333618 307.058105,479.530518 
	C306.209930,482.416077 305.810242,484.903748 301.868958,484.457275 
	C285.251038,482.574921 274.577087,489.717865 269.050140,506.030518 
M356.234894,222.730896 
	C355.570404,225.196762 354.905945,227.662628 354.119598,230.580750 
	C365.549835,230.580750 376.102142,230.580750 386.644501,230.580750 
	C387.195496,223.262131 382.853516,216.459717 375.545929,215.104263 
	C371.238739,214.305328 366.538757,215.623718 361.924438,215.294724 
	C357.139221,206.979446 349.641754,203.780792 341.523071,206.590866 
	C334.715668,208.947067 330.612244,215.024414 331.427826,221.952728 
	C339.654480,221.952728 347.927460,221.952728 356.234894,222.730896 
M313.880554,183.960617 
	C313.978790,184.346573 314.077026,184.732529 314.033997,185.869080 
	C313.469727,188.395523 312.905457,190.921951 312.272522,193.755814 
	C326.456451,193.755814 340.018158,193.755814 353.579407,193.755814 
	C353.556061,183.738708 347.371399,175.447311 337.949280,174.125488 
	C332.772217,173.399231 327.328979,174.570465 321.755890,174.254593 
	C315.169525,161.717407 304.224243,160.900284 293.995361,164.145416 
	C285.986786,166.686203 280.900299,176.786743 283.187897,183.359283 
	C293.337524,183.359283 303.615479,183.359283 313.880554,183.960617 
z"/>
<path fill="#43AF98" opacity="1.000000" stroke="none" 
	d="
M683.152649,403.825226 
	C678.025391,381.961670 664.040894,369.102783 642.229431,364.597565 
	C643.326782,360.347809 644.295410,356.857727 645.126221,353.335144 
	C649.395081,335.236023 637.030945,311.644379 614.351318,306.349396 
	C611.644836,305.717529 609.853088,305.177765 610.285461,301.600433 
	C612.272156,285.163971 606.724121,271.263611 595.786377,259.106964 
	C593.863525,256.969788 592.638184,253.817657 592.048767,250.938126 
	C589.975098,240.807877 585.904663,231.708817 577.458313,225.599716 
	C572.897644,222.301056 571.708069,218.809784 571.774902,213.529678 
	C572.054260,191.468628 556.839355,172.464966 535.288452,167.783401 
	C531.281494,166.912964 526.956482,167.579102 522.890869,166.880829 
	C520.174500,166.414307 516.992615,165.443344 515.154480,163.578812 
	C497.611145,145.783844 477.319397,141.893204 454.349091,151.042435 
	C451.467377,152.190231 449.812500,151.757568 448.070557,149.272171 
	C434.278259,129.593872 415.365021,120.349953 391.299896,121.017654 
	C367.783051,121.670151 344.407623,138.024872 335.386719,160.730484 
	C334.778442,162.261398 334.178497,163.795609 333.294250,166.040009 
	C331.381500,164.859787 329.760162,163.875397 328.154388,162.866226 
	C296.223297,142.798660 254.014084,160.125610 245.687836,196.767822 
	C244.953690,199.998657 245.018265,203.431992 244.089233,206.587997 
	C243.672394,208.004074 241.850616,209.763916 240.439285,209.997864 
	C234.548325,210.974442 228.571152,211.430771 222.180542,212.079437 
	C231.139709,192.019394 243.542236,173.914948 258.186066,157.385452 
	C300.026703,110.157043 352.144043,81.149071 414.641541,72.546959 
	C488.146301,62.429798 554.682861,80.503662 612.460754,127.294174 
	C664.252136,169.236511 694.867310,223.908722 704.572998,289.853241 
	C710.205872,328.125488 707.067200,365.929962 694.645386,403.198364 
	C690.396973,403.609375 686.774841,403.717316 683.152649,403.825226 
z"/>
<path fill="#226854" opacity="1.000000" stroke="none" 
	d="
M645.830566,491.905762 
	C630.104858,511.421356 611.224060,527.422180 590.284851,540.982239 
	C543.319275,571.396912 491.667114,584.749451 435.942413,581.727783 
	C396.951447,579.613525 360.240753,568.943848 326.423462,549.340271 
	C349.613464,549.018066 372.553589,548.587952 395.472504,549.102600 
	C412.970276,549.495605 426.628296,533.852295 418.508423,516.063354 
	C439.976379,515.969604 460.979980,515.905273 482.451660,515.889832 
	C512.821655,515.920776 542.723511,515.902832 573.042969,515.878662 
	C580.148804,516.932373 586.076843,515.779785 589.942993,509.620941 
	C593.731140,503.586090 592.699646,497.666351 589.444397,491.952576 
	C608.553162,491.927155 627.191895,491.916443 645.830566,491.905762 
z"/>
<path fill="#144535" opacity="1.000000" stroke="none" 
	d="
M646.107422,491.719604 
	C627.191895,491.916443 608.553162,491.927155 589.147583,491.803955 
	C586.359558,490.188141 584.338440,488.706207 582.098450,487.063782 
	C588.304199,484.047699 592.218140,479.786652 592.214722,472.712646 
	C592.211182,465.540863 588.036316,461.366730 581.588379,458.237549 
	C588.446533,455.196472 592.363525,450.718231 592.194458,443.448608 
	C592.028442,436.306641 587.922729,432.100616 581.322449,429.373047 
	C588.160583,426.582520 592.133118,422.200348 592.202271,414.920776 
	C592.271790,407.598206 587.977356,403.368103 581.603088,400.461273 
	C592.393250,394.612396 594.608276,387.999908 590.006531,376.936859 
	C590.862244,375.918030 591.500000,375.121094 592.450256,374.171600 
	C594.527161,369.976593 596.291565,365.934113 598.055908,361.891602 
	C623.711914,356.404663 659.173401,374.545868 660.618469,413.256287 
	C667.744080,410.239899 675.066040,407.140381 682.770386,403.933044 
	C686.774841,403.717316 690.396973,403.609375 694.475464,403.500488 
	C690.458801,414.934418 686.528625,426.619720 681.393188,437.748901 
	C672.359619,457.325867 660.504578,475.199890 646.107422,491.719604 
z"/>
<path fill="#134435" opacity="1.000000" stroke="none" 
	d="
M418.044006,516.092896 
	C426.628296,533.852295 412.970276,549.495605 395.472504,549.102600 
	C372.553589,548.587952 349.613464,549.018066 326.190857,549.080200 
	C310.055573,541.100769 296.105713,530.639648 282.860016,519.203125 
	C278.205597,515.184387 273.858398,510.809814 269.210510,506.314148 
	C274.577087,489.717865 285.251038,482.574921 301.868958,484.457275 
	C305.810242,484.903748 306.209930,482.416077 307.378479,479.508667 
	C308.755890,478.080078 309.792389,477.037903 311.160278,475.857178 
	C317.422089,471.153687 324.067261,470.279968 331.454712,472.058960 
	C332.807678,472.722809 333.901886,473.230591 335.233093,473.927551 
	C336.004242,474.411163 336.538330,474.705658 337.290710,475.245361 
	C339.645630,478.404541 341.670959,481.411041 343.976074,484.185028 
	C344.846863,485.232910 346.721893,486.669342 347.531860,486.356445 
	C356.056671,483.063293 364.144562,484.360321 372.292084,488.338165 
	C376.018890,493.366974 379.571472,498.125336 383.125427,503.270935 
	C383.536285,505.725739 383.945709,507.793396 384.462677,510.403992 
	C393.059479,503.834869 401.878113,504.232208 411.107239,508.495300 
	C413.549866,511.200226 415.796936,513.646545 418.044006,516.092896 
z"/>
<path fill="#4D2E0B" opacity="1.000000" stroke="none" 
	d="
M592.137695,374.324127 
	C591.500000,375.121094 590.862244,375.918030 589.724915,376.766418 
	C580.661987,368.626678 571.740356,369.533142 563.881470,379.283508 
	C486.866333,379.218140 410.342438,379.212158 333.552551,378.995361 
	C326.897064,369.126129 316.512817,368.801239 307.989716,377.993195 
	C306.650909,376.953033 305.312073,375.912872 304.075806,374.330566 
	C328.142120,351.643646 352.121124,329.515381 376.064880,307.349030 
	C395.733490,289.140472 415.314148,270.836700 435.027710,252.677078 
	C443.061523,245.276581 453.042267,245.341110 461.102325,252.733887 
	C474.842499,265.336548 488.465515,278.066864 502.161072,290.718292 
	C518.546021,305.854095 534.996277,320.919495 551.341797,336.097687 
	C564.997559,348.778259 578.543274,361.577454 592.137695,374.324127 
M464.850250,305.964813 
	C473.517181,305.964813 482.184113,305.964813 490.851074,305.964813 
	C491.068848,305.471039 491.286652,304.977264 491.504425,304.483490 
	C488.033997,301.252502 484.674866,297.888794 481.046631,294.845886 
	C479.201111,293.298126 476.899902,291.333008 474.755676,291.271729 
	C466.344208,291.031342 457.913300,291.473602 448.908508,291.490753 
	C448.110260,291.547119 447.312042,291.603516 445.543640,291.391205 
	C439.888672,291.268341 434.168823,291.644470 428.592072,290.919586 
	C416.651062,289.367554 411.745636,298.494995 405.295929,305.912842 
	C414.234039,305.912842 423.172180,305.912842 433.025818,305.962677 
	C443.317657,305.949921 453.609528,305.937195 464.850250,305.964813 
M548.930298,358.212402 
	C544.943970,354.598450 541.375183,348.684052 536.880981,347.868317 
	C528.537476,346.353882 519.653870,347.815521 510.166626,347.899689 
	C507.355896,347.662720 504.545471,347.223175 501.734436,347.219513 
	C465.964233,347.172821 430.193939,347.166809 394.423767,347.227020 
	C391.285522,347.232300 388.148193,347.776062 384.317596,347.609894 
	C377.516907,347.424072 370.716919,347.192780 363.915009,347.082855 
	C362.108521,347.053650 359.729401,346.720612 358.580811,347.682526 
	C352.436371,352.828186 346.598236,358.339661 340.654236,363.724701 
	C340.860596,364.139343 341.066956,364.553986 341.273346,364.968628 
	C350.197296,364.968628 359.121246,364.968628 368.975372,365.028198 
	C398.638641,365.045044 428.301941,365.088196 457.965179,365.070343 
	C481.293976,365.056305 504.622711,364.966980 528.898071,364.945160 
	C537.544067,364.945160 546.190125,364.945160 554.836121,364.945160 
	C554.976257,364.467377 555.116455,363.989563 555.256592,363.511780 
	C553.218506,361.959686 551.180481,360.407593 548.930298,358.212402 
M495.759979,333.932526 
	C504.432343,333.932526 513.104736,333.932526 519.846130,333.932526 
	C516.507263,329.850098 512.749329,325.052704 508.720001,320.495178 
	C507.886993,319.552887 506.046997,319.114471 504.666870,319.105652 
	C496.387665,319.052582 488.107178,319.192780 478.915314,319.187042 
	C458.005768,319.214874 437.096191,319.242737 415.220734,319.132843 
	C407.575226,319.097656 399.927307,318.948578 392.285950,319.109558 
	C390.441162,319.148407 388.111572,319.694397 386.876892,320.900055 
	C382.663025,325.014923 378.838013,329.527985 374.812622,333.946136 
	C383.594696,333.946136 392.833710,333.946136 403.000397,333.977478 
	C433.595093,333.936707 464.189789,333.895935 495.759979,333.932526 
M451.593292,267.959076 
	C450.066681,267.225220 447.741577,265.458679 447.141266,265.922852 
	C442.799103,269.280182 438.805511,273.088348 433.821289,277.539917 
	C443.850861,277.539917 452.332520,277.539917 462.300140,277.539917 
	C458.222473,273.872192 455.179840,271.135468 451.593292,267.959076 
z"/>
<path fill="#975F1A" opacity="1.000000" stroke="none" 
	d="
M592.450256,374.171600 
	C578.543274,361.577454 564.997559,348.778259 551.341797,336.097687 
	C534.996277,320.919495 518.546021,305.854095 502.161072,290.718292 
	C488.465515,278.066864 474.842499,265.336548 461.102325,252.733887 
	C453.042267,245.341110 443.061523,245.276581 435.027710,252.677078 
	C415.314148,270.836700 395.733490,289.140472 376.064880,307.349030 
	C352.121124,329.515381 328.142120,351.643646 303.917969,374.054932 
	C296.256897,366.656860 296.496216,356.310944 304.591461,348.707092 
	C319.269165,334.920349 334.110870,321.308228 348.875397,307.613861 
	C350.216492,306.369965 351.494385,305.057983 353.269165,303.309082 
	C355.546570,300.277649 358.867798,297.747131 358.923431,295.146759 
	C359.313110,276.918884 359.028778,258.676575 358.960022,240.438904 
	C361.507568,241.463150 364.055115,242.487396 366.800690,244.243912 
	C366.998718,259.650024 366.998718,274.323853 366.998718,289.580231 
	C371.655518,287.780914 373.262024,285.159485 373.229553,280.974670 
	C373.124054,267.373840 373.251709,253.771164 373.289581,240.169189 
	C375.703156,241.429367 378.116699,242.689529 380.759338,244.654114 
	C380.988373,255.686081 380.988373,266.013611 380.988373,277.103119 
	C385.522156,274.669708 387.168030,272.167572 387.068298,268.122192 
	C386.838898,258.820099 386.991577,249.508621 386.989166,240.200958 
	C393.032471,240.339493 395.383148,242.501999 395.630310,248.600769 
	C395.815704,253.175446 395.666962,257.763641 395.666962,262.345825 
	C396.112274,262.545715 396.557556,262.745636 397.002869,262.945526 
	C401.840942,258.546387 406.697906,254.167786 411.512909,249.743484 
	C419.600708,242.311874 427.511627,234.679474 435.776703,227.451416 
	C443.928467,220.322449 453.356049,220.723053 461.363739,228.132645 
	C503.875427,267.469055 546.355042,306.840118 588.891296,346.149933 
	C593.399597,350.316254 597.340332,354.679840 597.956665,361.527100 
	C596.291565,365.934113 594.527161,369.976593 592.450256,374.171600 
M378.410034,288.912537 
	C390.665680,277.709686 402.958069,266.546265 415.111786,255.233856 
	C416.154816,254.263046 416.277496,252.303391 416.827698,250.803101 
	C415.273743,251.305527 413.363708,251.395401 412.224640,252.378510 
	C405.691071,258.017426 399.305756,263.830292 392.938354,269.658722 
	C387.302917,274.817108 381.712463,280.027161 376.219269,285.335602 
	C375.412140,286.115570 375.253723,287.566833 374.795135,288.707489 
	C375.813202,288.904968 376.831299,289.102448 378.410034,288.912537 
M505.144714,284.377045 
	C502.282043,281.853973 499.419373,279.330872 496.556671,276.807800 
	C495.958984,277.308502 495.361298,277.809204 494.763611,278.309906 
	C495.942719,280.132812 496.808655,282.293121 498.351013,283.724731 
	C509.686798,294.246674 521.124451,304.660187 532.645813,314.978485 
	C533.633362,315.862915 535.460449,315.809845 536.897583,316.192261 
	C536.455383,314.804932 536.434448,312.966309 535.506165,312.099701 
	C525.660095,302.908203 515.669739,293.871246 505.144714,284.377045 
M483.032288,251.478790 
	C481.365021,249.854767 479.874847,247.965820 477.972198,246.693954 
	C476.554077,245.745941 474.602386,245.596069 472.888336,245.090744 
	C473.593079,246.586197 473.939819,248.460419 475.058655,249.517700 
	C484.833221,258.754852 494.706360,267.889191 504.642548,276.952881 
	C507.460083,279.522980 510.580902,281.760590 514.229370,284.685150 
	C514.528381,282.652466 515.022949,281.481079 514.699097,281.174561 
	C504.360168,271.390472 493.942017,261.690155 483.032288,251.478790 
M330.593689,344.074493 
	C336.511261,338.753021 342.490448,333.496857 348.276428,328.035980 
	C349.095276,327.263153 348.973083,325.493378 349.286438,324.185028 
	C348.016022,324.461975 346.370758,324.322754 345.531586,325.078552 
	C333.577240,335.845398 321.696106,346.694794 309.919952,357.656006 
	C308.829681,358.670746 308.573914,360.582031 307.930664,362.077026 
	C309.609497,361.554352 311.692841,361.491577 312.898529,360.431030 
	C318.751007,355.282745 324.368286,349.867004 330.593689,344.074493 
z"/>
<path fill="#DBAC73" opacity="1.000000" stroke="none" 
	d="
M307.907440,378.366577 
	C316.512817,368.801239 326.897064,369.126129 333.625061,379.386902 
	C334.304169,383.307068 334.644806,386.624908 334.811310,390.246033 
	C331.687317,394.099823 328.737488,397.650330 325.847260,401.129089 
	C326.430145,401.441193 328.138000,402.355682 330.027191,403.553284 
	C334.949188,407.864136 335.649231,413.167908 334.798035,419.212311 
	C331.675018,423.063721 328.721741,426.610748 325.823425,430.091766 
	C326.436005,430.391571 328.162170,431.236359 330.063904,432.376617 
	C334.466583,436.548676 335.677399,441.444672 334.942047,447.292419 
	C331.909943,451.456482 329.002716,455.284302 326.108978,459.094360 
	C326.389557,459.204315 327.587708,459.673889 328.982117,460.420563 
	C333.214294,464.109222 335.679840,468.221313 334.996063,473.738373 
	C333.901886,473.230591 332.807678,472.722809 331.437103,471.673096 
	C329.669739,463.851440 324.571014,460.187286 318.148407,461.779999 
	C311.633209,463.395691 308.812378,468.874176 310.828857,475.995728 
	C309.792389,477.037903 308.755890,478.080078 307.399048,479.144104 
	C304.744141,468.333618 306.898071,463.432159 316.576996,458.410614 
	C310.515533,455.323059 306.071106,451.142578 306.022675,444.061188 
	C305.973175,436.824493 310.031464,432.362183 316.393585,429.592041 
	C302.221100,420.163300 302.249512,408.544769 316.377075,400.476257 
	C306.096283,394.246521 303.913361,388.698151 307.907440,378.366577 
M309.977600,444.291718 
	C311.481995,450.928162 315.385132,454.326691 321.177643,454.043701 
	C326.503204,453.783539 330.587952,449.924164 331.119965,444.649994 
	C331.737335,438.529816 327.976929,433.587616 322.198883,432.925171 
	C315.317596,432.136261 310.947723,435.901886 309.977600,444.291718 
M330.627899,418.620880 
	C332.091888,413.228119 330.965210,408.609680 326.085358,405.554626 
	C322.419556,403.259644 318.445343,403.265411 314.791229,405.744629 
	C310.820984,408.438354 309.174835,412.321014 310.210419,417.016907 
	C311.145355,421.256378 313.810181,424.172028 318.179993,424.992340 
	C323.471161,425.985687 327.696350,424.322083 330.627899,418.620880 
M318.279541,375.567291 
	C313.210541,376.969696 310.258392,380.230072 309.991852,385.528931 
	C309.772308,389.894379 311.657562,393.308411 315.564880,395.374725 
	C319.858307,397.645294 324.001099,397.067719 327.640717,393.983307 
	C331.381836,390.812897 331.995361,386.601227 330.587006,382.144958 
	C329.171265,377.665161 324.916962,375.312164 318.279541,375.567291 
z"/>
<path fill="#FCFDFD" opacity="1.000000" stroke="none" 
	d="
M322.005737,174.886169 
	C327.328979,174.570465 332.772217,173.399231 337.949280,174.125488 
	C347.371399,175.447311 353.556061,183.738708 353.579407,193.755814 
	C340.018158,193.755814 326.456451,193.755814 312.272522,193.755814 
	C312.905457,190.921951 313.469727,188.395523 314.349976,185.327118 
	C314.773926,184.208725 314.881927,183.632294 315.242310,182.835037 
	C317.665070,180.038193 319.835388,177.462173 322.005737,174.886169 
z"/>
<path fill="#D6D7D7" opacity="1.000000" stroke="none" 
	d="
M321.880798,174.570374 
	C319.835388,177.462173 317.665070,180.038193 314.957458,182.872910 
	C314.244629,183.207489 314.069061,183.283386 313.893463,183.359283 
	C303.615479,183.359283 293.337524,183.359283 283.187897,183.359283 
	C280.900299,176.786743 285.986786,166.686203 293.995361,164.145416 
	C304.224243,160.900284 315.169525,161.717407 321.880798,174.570374 
z"/>
<path fill="#F8FAFA" opacity="1.000000" stroke="none" 
	d="
M362.015442,215.989883 
	C366.538757,215.623718 371.238739,214.305328 375.545929,215.104263 
	C382.853516,216.459717 387.195496,223.262131 386.644501,230.580750 
	C376.102142,230.580750 365.549835,230.580750 354.119598,230.580750 
	C354.905945,227.662628 355.570404,225.196762 356.480530,222.162262 
	C358.489288,219.725723 360.252350,217.857803 362.015442,215.989883 
z"/>
<path fill="#D6D7D7" opacity="1.000000" stroke="none" 
	d="
M361.969940,215.642303 
	C360.252350,217.857803 358.489288,219.725723 356.463318,221.773193 
	C347.927460,221.952728 339.654480,221.952728 331.427826,221.952728 
	C330.612244,215.024414 334.715668,208.947067 341.523071,206.590866 
	C349.641754,203.780792 357.139221,206.979446 361.969940,215.642303 
z"/>
<path fill="#4D2E0B" opacity="1.000000" stroke="none" 
	d="
M358.573669,240.503113 
	C359.028778,258.676575 359.313110,276.918884 358.923431,295.146759 
	C358.867798,297.747131 355.546570,300.277649 353.442566,303.028198 
	C353.096375,284.842773 353.031158,266.469666 353.003510,248.096466 
	C352.998016,244.441757 354.418457,241.671432 358.573669,240.503113 
z"/>
<path fill="#4D2E0B" opacity="1.000000" stroke="none" 
	d="
M372.929077,240.175018 
	C373.251709,253.771164 373.124054,267.373840 373.229553,280.974670 
	C373.262024,285.159485 371.655518,287.780914 366.998718,289.580231 
	C366.998718,274.323853 366.998718,259.650024 367.010925,244.511963 
	C368.871582,242.758789 370.720062,241.469818 372.929077,240.175018 
z"/>
<path fill="#4D2E0B" opacity="1.000000" stroke="none" 
	d="
M386.662598,240.256287 
	C386.991577,249.508621 386.838898,258.820099 387.068298,268.122192 
	C387.168030,272.167572 385.522156,274.669708 380.988373,277.103119 
	C380.988373,266.013611 380.988373,255.686081 380.985138,244.936966 
	C382.766602,243.114120 384.551331,241.712875 386.662598,240.256287 
z"/>
<path fill="#43AF98" opacity="1.000000" stroke="none" 
	d="
M313.887024,183.659943 
	C314.069061,183.283386 314.244629,183.207489 314.705048,183.093735 
	C314.881927,183.632294 314.773926,184.208725 314.420593,184.951828 
	C314.077026,184.732529 313.978790,184.346573 313.887024,183.659943 
z"/>
<path fill="#331D07" opacity="1.000000" stroke="none" 
	d="
M418.508423,516.063354 
	C415.796936,513.646545 413.549866,511.200226 411.130493,508.037354 
	C410.930023,505.814880 410.901886,504.308868 410.907562,502.350525 
	C410.935333,497.304138 410.929260,492.710083 410.939758,487.644714 
	C410.928864,483.049835 410.901398,478.926331 410.907715,474.350525 
	C410.945557,469.290039 410.949677,464.681854 410.968506,459.601532 
	C410.913330,454.991119 410.843445,450.852844 410.836670,446.275391 
	C410.917480,441.248322 410.935150,436.660431 410.966553,431.601929 
	C410.916199,426.999451 410.852142,422.867584 410.851013,418.295013 
	C410.878448,412.995026 410.842987,408.135773 410.854126,402.854431 
	C410.936829,401.308838 410.972900,400.185272 411.470612,398.977997 
	C435.284668,398.950317 458.637054,399.006378 481.992493,399.463379 
	C481.975555,401.200500 481.955536,402.536682 481.916779,404.348511 
	C481.910522,409.258392 481.923004,413.692627 481.942566,418.583435 
	C481.963196,423.354431 481.976685,427.668884 481.951782,432.449127 
	C482.000702,437.530365 482.088013,442.145844 482.136963,447.237793 
	C482.060455,451.799988 482.022369,455.885681 481.947723,460.438568 
	C481.964844,465.565918 482.018494,470.226074 482.055298,475.356750 
	C482.033539,479.898285 482.028656,483.969360 481.975159,488.501068 
	C481.975098,493.603241 482.023621,498.244751 482.055298,503.355347 
	C482.020142,507.829956 482.001831,511.835449 481.983521,515.840942 
	C460.979980,515.905273 439.976379,515.969604 418.508423,516.063354 
z"/>
<path fill="#DBAC73" opacity="1.000000" stroke="none" 
	d="
M564.372803,379.342896 
	C571.740356,369.533142 580.661987,368.626678 589.506897,376.988281 
	C594.608276,387.999908 592.393250,394.612396 581.603088,400.461273 
	C587.977356,403.368103 592.271790,407.598206 592.202271,414.920776 
	C592.133118,422.200348 588.160583,426.582520 581.322449,429.373047 
	C587.922729,432.100616 592.028442,436.306641 592.194458,443.448608 
	C592.363525,450.718231 588.446533,455.196472 581.588379,458.237549 
	C588.036316,461.366730 592.211182,465.540863 592.214722,472.712646 
	C592.218140,479.786652 588.304199,484.047699 582.098450,487.063782 
	C584.338440,488.706207 586.359558,490.188141 588.677490,491.818695 
	C592.699646,497.666351 593.731140,503.586090 589.942993,509.620941 
	C586.076843,515.779785 580.148804,516.932373 572.795776,515.605469 
	C566.814880,512.903748 563.941101,508.643219 562.943115,502.594055 
	C562.901123,495.859924 566.133911,491.483215 571.548462,488.120697 
	C571.863770,487.424286 572.042358,486.353973 571.793518,486.243103 
	C566.840027,484.036041 564.380005,479.932831 563.005676,474.554321 
	C562.502930,468.308258 565.308716,464.001862 569.661621,460.158936 
	C571.138855,459.566498 572.303955,459.073242 574.011414,458.350372 
	C568.193848,456.068176 564.759766,452.248260 563.128784,446.408875 
	C562.281128,440.438629 564.675110,436.084595 568.537720,432.050049 
	C570.387695,431.149261 571.921387,430.352570 572.191772,430.212067 
	C569.097534,426.165680 566.016785,422.137024 562.980530,417.670563 
	C564.412598,412.848663 565.800232,408.464569 567.492798,403.947754 
	C569.674072,402.701080 571.550537,401.587158 572.248413,401.172852 
	C569.205811,397.287842 566.238159,393.498535 563.270996,389.292725 
	C563.638550,385.698456 564.005676,382.520691 564.372803,379.342896 
M584.649109,423.239746 
	C588.965820,418.395691 589.745544,413.639526 586.936584,409.287048 
	C584.298279,405.199005 579.297485,403.285980 574.812927,404.649200 
	C568.661621,406.519135 565.495972,413.075134 567.910828,418.943176 
	C570.533081,425.314819 577.018982,427.226013 584.649109,423.239746 
M583.421753,376.871094 
	C579.047607,374.339508 574.781921,374.646027 570.959717,377.831177 
	C567.659424,380.581268 566.319946,384.285004 567.433777,388.543762 
	C568.708984,393.419769 572.117371,396.214203 577.007568,396.654694 
	C581.721252,397.079315 585.372803,394.885468 587.474854,390.571259 
	C589.717163,385.968964 588.563232,381.750885 583.421753,376.871094 
M582.126770,434.085327 
	C573.655273,430.352966 565.326904,438.318390 567.412231,446.459534 
	C568.619019,451.170502 572.714172,454.528259 577.449707,454.713684 
	C581.883850,454.887299 586.546143,451.720795 587.854553,447.647034 
	C589.521362,442.457214 587.850769,438.042969 582.126770,434.085327 
M583.682800,510.465057 
	C588.107727,506.594574 589.510193,501.915405 587.658691,497.200104 
	C586.009338,492.999573 581.755920,490.546082 576.795044,490.933655 
	C572.177063,491.294464 567.735229,494.519623 567.599487,499.220978 
	C567.501221,502.626801 568.903625,506.737335 571.051392,509.386993 
	C574.054749,513.092285 578.691223,512.814087 583.682800,510.465057 
M570.418030,464.875732 
	C566.259460,470.192932 565.987000,474.964172 569.592285,479.335907 
	C572.753601,483.169312 578.280945,484.327698 582.738098,482.091034 
	C587.128174,479.888031 589.248779,475.009918 588.077209,469.809143 
	C586.402283,462.373871 578.333862,459.796021 570.418030,464.875732 
z"/>
<path fill="#4D2E0B" opacity="1.000000" stroke="none" 
	d="
M562.911011,503.004456 
	C563.941101,508.643219 566.814880,512.903748 572.378235,515.611694 
	C542.723511,515.902832 512.821655,515.920776 482.451630,515.889832 
	C482.001831,511.835449 482.020142,507.829956 482.517822,503.363556 
	C509.635101,502.936584 536.273071,502.970520 562.911011,503.004456 
z"/>
<path fill="#975F1A" opacity="1.000000" stroke="none" 
	d="
M410.953796,460.073669 
	C410.949677,464.681854 410.945557,469.290039 410.450378,474.383606 
	C385.663696,474.912689 361.368073,474.956421 337.072449,475.000153 
	C336.538330,474.705658 336.004242,474.411163 335.233093,473.927551 
	C335.679840,468.221313 333.214294,464.109222 329.464142,460.354889 
	C356.817871,460.032623 383.885834,460.053131 410.953796,460.073669 
M366.500000,462.040131 
	C357.838470,462.059143 349.174042,461.972260 340.518524,462.210480 
	C339.207153,462.246582 337.937408,463.794189 336.648407,464.642670 
	C337.901093,465.408997 339.147552,466.830322 340.407440,466.842285 
	C356.397156,466.994385 372.389435,467.005371 388.378876,466.841095 
	C389.827759,466.826233 391.261658,465.351044 392.702515,464.554016 
	C391.297791,463.721863 389.917450,462.223053 388.484222,462.170654 
	C381.497223,461.915131 374.496124,462.046082 366.500000,462.040131 
z"/>
<path fill="#4D2E0B" opacity="1.000000" stroke="none" 
	d="
M337.290710,475.245361 
	C361.368073,474.956421 385.663696,474.912689 410.416626,474.835876 
	C410.901398,478.926331 410.928864,483.049835 410.478333,487.609192 
	C397.372864,488.052582 384.745361,488.060150 372.117889,488.067688 
	C364.144562,484.360321 356.056671,483.063293 347.531860,486.356445 
	C346.721893,486.669342 344.846863,485.232910 343.976074,484.185028 
	C341.670959,481.411041 339.645630,478.404541 337.290710,475.245361 
z"/>
<path fill="#975F1A" opacity="1.000000" stroke="none" 
	d="
M372.292084,488.338135 
	C384.745361,488.060150 397.372864,488.052582 410.461761,488.080505 
	C410.929260,492.710083 410.935333,497.304138 410.450287,502.383575 
	C401.014160,502.873871 392.069092,502.878815 383.124054,502.883728 
	C379.571472,498.125336 376.018890,493.366974 372.292084,488.338135 
z"/>
<path fill="#9A601B" opacity="1.000000" stroke="none" 
	d="
M311.160278,475.857178 
	C308.812378,468.874176 311.633209,463.395691 318.148407,461.779999 
	C324.571014,460.187286 329.669739,463.851440 331.178345,471.517029 
	C324.067261,470.279968 317.422089,471.153687 311.160278,475.857178 
z"/>
<path fill="#4D2E0B" opacity="1.000000" stroke="none" 
	d="
M383.125427,503.270935 
	C392.069092,502.878815 401.014160,502.873871 410.416473,502.835938 
	C410.901886,504.308868 410.930023,505.814880 410.934937,507.778809 
	C401.878113,504.232208 393.059479,503.834869 384.462677,510.403992 
	C383.945709,507.793396 383.536285,505.725739 383.125427,503.270935 
z"/>
<path fill="#915B1A" opacity="1.000000" stroke="none" 
	d="
M563.881531,379.283508 
	C564.005676,382.520691 563.638550,385.698456 562.783997,389.329102 
	C538.998779,389.873108 515.700928,389.964233 492.177063,389.800964 
	C489.752319,388.636658 487.558807,386.949371 485.354218,386.934814 
	C458.035278,386.754486 430.714081,386.740387 403.395660,386.958771 
	C401.100372,386.977081 398.820923,388.977997 396.032227,390.075439 
	C375.348663,390.042938 355.167053,389.992859 334.985413,389.942780 
	C334.644806,386.624908 334.304169,383.307068 333.891052,379.597656 
	C410.342438,379.212158 486.866333,379.218140 563.881531,379.283508 
M356.878235,384.971252 
	C372.173370,384.969879 387.469269,385.037140 402.762543,384.867798 
	C404.409973,384.849579 406.042206,383.457672 407.681519,382.702972 
	C406.175842,381.814209 404.679108,380.171112 403.163055,380.153076 
	C387.537750,379.967010 371.908264,379.965332 356.283264,380.167725 
	C354.710602,380.188110 353.159668,381.885773 351.598633,382.805023 
	C353.063568,383.525421 354.528534,384.245850 356.878235,384.971252 
z"/>
<path fill="#995F1A" opacity="1.000000" stroke="none" 
	d="
M527.951477,364.911133 
	C504.622711,364.966980 481.293976,365.056305 457.965179,365.070343 
	C428.301941,365.088196 398.638641,365.045044 368.653320,364.747498 
	C368.915039,363.975891 369.498840,363.485016 370.543152,362.979614 
	C378.332733,362.962585 385.661835,362.959778 392.990936,362.957581 
	C401.985748,362.954895 410.983704,363.073456 419.972351,362.836731 
	C421.552307,362.795135 423.093079,361.266174 424.651978,360.424103 
	C423.037628,359.632385 421.480194,358.666870 419.788025,358.112762 
	C418.734314,357.767700 417.476898,358.048737 416.310944,358.041901 
	C403.155823,357.964752 390.000732,357.886261 376.938782,357.484375 
	C379.691437,354.130310 382.350922,351.100037 385.010437,348.069763 
	C388.148193,347.776062 391.285522,347.232300 394.423767,347.227020 
	C430.193939,347.166809 465.964233,347.172821 501.734436,347.219513 
	C504.545471,347.223175 507.355896,347.662720 510.750275,348.251831 
	C514.276062,351.987488 517.218201,355.371002 519.681641,358.833557 
	C502.887451,359.507050 502.887451,359.507050 500.924713,362.991852 
	C509.711212,362.991852 517.841125,362.991852 526.213745,363.133850 
	C526.954773,363.820953 527.453125,364.366028 527.951477,364.911133 
M437.695465,353.496002 
	C452.597626,355.738037 490.618774,354.218109 492.662903,351.025146 
	C491.917023,350.687134 491.215302,350.093292 490.511383,350.090607 
	C473.522064,350.026123 456.532166,349.982513 439.544250,350.139862 
	C438.716644,350.147491 437.906311,352.017212 437.695465,353.496002 
z"/>
<path fill="#975F1A" opacity="1.000000" stroke="none" 
	d="
M416.186646,319.270569 
	C437.096191,319.242737 458.005768,319.214874 479.523926,319.507507 
	C485.016541,324.503693 489.900513,329.179413 494.784485,333.855164 
	C464.189789,333.895935 433.595093,333.936707 402.681458,333.674622 
	C404.236115,331.250854 406.109741,329.129974 408.264465,327.000610 
	C408.732819,326.985626 408.920074,326.979156 409.569214,326.979614 
	C419.505096,326.994202 428.981110,327.101044 438.451324,326.914886 
	C440.087555,326.882660 441.699341,325.607727 443.322418,324.906799 
	C441.633575,324.267700 439.963104,323.137695 438.252747,323.073730 
	C430.454163,322.782013 422.644348,322.789764 414.919067,322.390625 
	C415.395264,321.151093 415.790955,320.210815 416.186646,319.270569 
z"/>
<path fill="#714612" opacity="1.000000" stroke="none" 
	d="
M370.082642,362.994141 
	C369.498840,363.485016 368.915039,363.975891 368.188232,364.717712 
	C359.121246,364.968628 350.197296,364.968628 341.273346,364.968628 
	C341.066956,364.553986 340.860596,364.139343 340.654236,363.724701 
	C346.598236,358.339661 352.436371,352.828186 358.580811,347.682526 
	C359.729401,346.720612 362.108521,347.053650 363.915009,347.082855 
	C370.716919,347.192780 377.516907,347.424072 384.664001,347.839844 
	C382.350922,351.100037 379.691437,354.130310 376.601562,357.553467 
	C374.141663,359.628906 372.112152,361.311523 370.082642,362.994141 
z"/>
<path fill="#714612" opacity="1.000000" stroke="none" 
	d="
M495.272217,333.893860 
	C489.900513,329.179413 485.016541,324.503693 479.979858,319.548096 
	C488.107178,319.192780 496.387665,319.052582 504.666870,319.105652 
	C506.046997,319.114471 507.886993,319.552887 508.720001,320.495178 
	C512.749329,325.052704 516.507263,329.850098 519.846130,333.932526 
	C513.104736,333.932526 504.432343,333.932526 495.272217,333.893860 
z"/>
<path fill="#714612" opacity="1.000000" stroke="none" 
	d="
M432.110291,305.912842 
	C423.172180,305.912842 414.234039,305.912842 405.295929,305.912842 
	C411.745636,298.494995 416.651062,289.367554 428.592072,290.919586 
	C434.168823,291.644470 439.888672,291.268341 445.853210,291.777100 
	C444.788330,293.135773 443.413910,294.108551 441.697144,294.836792 
	C434.741272,294.592224 428.127838,294.592224 421.514374,294.592224 
	C421.407806,295.226349 421.301239,295.860443 421.194672,296.494568 
	C422.822571,296.993134 424.433563,297.842773 426.081665,297.922119 
	C430.401367,298.130066 434.737244,298.001923 438.895508,298.294067 
	C436.519653,301.024536 434.314972,303.468689 432.110291,305.912842 
z"/>
<path fill="#714612" opacity="1.000000" stroke="none" 
	d="
M520.160339,358.754517 
	C517.218201,355.371002 514.276062,351.987488 511.164520,348.321014 
	C519.653870,347.815521 528.537476,346.353882 536.880981,347.868317 
	C541.375183,348.684052 544.943970,354.598450 548.554443,358.575806 
	C539.726624,359.018463 531.274658,359.097687 522.490662,359.120117 
	C521.492493,358.960388 520.826416,358.857452 520.160339,358.754517 
z"/>
<path fill="#714612" opacity="1.000000" stroke="none" 
	d="
M407.983398,327.009094 
	C406.109741,329.129974 404.236115,331.250854 402.217590,333.658936 
	C392.833710,333.946136 383.594696,333.946136 374.812622,333.946136 
	C378.838013,329.527985 382.663025,325.014923 386.876892,320.900055 
	C388.111572,319.694397 390.441162,319.148407 392.285950,319.109558 
	C399.927307,318.948578 407.575226,319.097656 415.703674,319.201721 
	C415.790955,320.210815 415.395264,321.151093 414.584930,322.449951 
	C413.498230,322.915222 412.826141,323.021851 411.672791,323.093719 
	C404.869324,323.039368 398.542023,322.876068 392.228363,323.098938 
	C390.603729,323.156311 389.022003,324.429413 387.420563,325.144043 
	C388.950623,325.762451 390.460876,326.848511 392.014343,326.914307 
	C397.329163,327.139252 402.659180,327.005829 407.983398,327.009094 
z"/>
<path fill="#714612" opacity="1.000000" stroke="none" 
	d="
M449.489594,291.662354 
	C457.913300,291.473602 466.344208,291.031342 474.755676,291.271729 
	C476.899902,291.333008 479.201111,293.298126 481.046631,294.845886 
	C484.674866,297.888794 488.033997,301.252502 491.504425,304.483490 
	C491.286652,304.977264 491.068848,305.471039 490.851074,305.964813 
	C482.184113,305.964813 473.517181,305.964813 464.228394,305.660339 
	C461.386230,302.906158 459.165924,300.456482 457.420044,298.004425 
	C464.359406,297.368408 471.102722,299.363068 477.375336,295.494904 
	C469.250793,293.670746 461.035706,294.008911 452.537170,294.059265 
	C451.322693,293.199219 450.406158,292.430786 449.489594,291.662354 
z"/>
<path fill="#995F1A" opacity="1.000000" stroke="none" 
	d="
M456.945618,298.006805 
	C459.165924,300.456482 461.386230,302.906158 463.753967,305.640137 
	C453.609528,305.937195 443.317657,305.949921 432.568054,305.937744 
	C434.314972,303.468689 436.519653,301.024536 439.210693,298.291901 
	C440.118500,297.997833 440.539948,297.992188 441.428772,297.987335 
	C446.520569,297.975800 451.145050,297.963470 456.063354,297.968201 
	C456.553375,297.992401 456.749481,297.999603 456.945618,298.006805 
z"/>
<path fill="#714612" opacity="1.000000" stroke="none" 
	d="
M451.865265,268.178894 
	C455.179840,271.135468 458.222473,273.872192 462.300140,277.539917 
	C452.332520,277.539917 443.850861,277.539917 433.821289,277.539917 
	C438.805511,273.088348 442.799103,269.280182 447.141266,265.922852 
	C447.741577,265.458679 450.066681,267.225220 451.865265,268.178894 
z"/>
<path fill="#835623" opacity="1.000000" stroke="none" 
	d="
M522.822754,359.176910 
	C531.274658,359.097687 539.726624,359.018463 548.660461,358.897369 
	C551.180481,360.407593 553.218506,361.959686 555.256592,363.511780 
	C555.116455,363.989563 554.976257,364.467377 554.836121,364.945160 
	C546.190125,364.945160 537.544067,364.945160 528.424805,364.928131 
	C527.453125,364.366028 526.954773,363.820953 526.066040,362.861633 
	C524.724731,361.357208 523.773743,360.267059 522.822754,359.176910 
z"/>
<path fill="#B47937" opacity="1.000000" stroke="none" 
	d="
M455.769501,297.951172 
	C451.145050,297.963470 446.520569,297.975800 441.493042,297.682922 
	C441.406494,296.612274 441.723022,295.846802 442.039551,295.081329 
	C443.413910,294.108551 444.788330,293.135773 446.338257,291.911469 
	C447.312042,291.603516 448.110260,291.547119 449.199036,291.576538 
	C450.406158,292.430786 451.322693,293.199219 452.717133,294.306824 
	C454.053192,295.747681 454.911346,296.849426 455.769501,297.951172 
z"/>
<path fill="#B87D3C" opacity="1.000000" stroke="none" 
	d="
M378.129700,289.106232 
	C376.831299,289.102448 375.813202,288.904968 374.795135,288.707489 
	C375.253723,287.566833 375.412140,286.115570 376.219269,285.335602 
	C381.712463,280.027161 387.302917,274.817108 392.938354,269.658722 
	C399.305756,263.830292 405.691071,258.017426 412.224640,252.378510 
	C413.363708,251.395401 415.273743,251.305527 416.827698,250.803101 
	C416.277496,252.303391 416.154816,254.263046 415.111786,255.233856 
	C402.958069,266.546265 390.665680,277.709686 378.129700,289.106232 
z"/>
<path fill="#B87D3C" opacity="1.000000" stroke="none" 
	d="
M505.431885,284.584412 
	C515.669739,293.871246 525.660095,302.908203 535.506165,312.099701 
	C536.434448,312.966309 536.455383,314.804932 536.897583,316.192261 
	C535.460449,315.809845 533.633362,315.862915 532.645813,314.978485 
	C521.124451,304.660187 509.686798,294.246674 498.351013,283.724731 
	C496.808655,282.293121 495.942719,280.132812 494.763611,278.309906 
	C495.361298,277.809204 495.958984,277.308502 496.556671,276.807800 
	C499.419373,279.330872 502.282043,281.853973 505.431885,284.584412 
z"/>
<path fill="#B87D3C" opacity="1.000000" stroke="none" 
	d="
M483.284058,251.727982 
	C493.942017,261.690155 504.360168,271.390472 514.699097,281.174561 
	C515.022949,281.481079 514.528381,282.652466 514.229370,284.685150 
	C510.580902,281.760590 507.460083,279.522980 504.642548,276.952881 
	C494.706360,267.889191 484.833221,258.754852 475.058655,249.517700 
	C473.939819,248.460419 473.593079,246.586197 472.888336,245.090744 
	C474.602386,245.596069 476.554077,245.745941 477.972198,246.693954 
	C479.874847,247.965820 481.365021,249.854767 483.284058,251.727982 
z"/>
<path fill="#B87D3C" opacity="1.000000" stroke="none" 
	d="
M330.331268,344.310242 
	C324.368286,349.867004 318.751007,355.282745 312.898529,360.431030 
	C311.692841,361.491577 309.609497,361.554352 307.930664,362.077026 
	C308.573914,360.582031 308.829681,358.670746 309.919952,357.656006 
	C321.696106,346.694794 333.577240,335.845398 345.531586,325.078552 
	C346.370758,324.322754 348.016022,324.461975 349.286438,324.185028 
	C348.973083,325.493378 349.095276,327.263153 348.276428,328.035980 
	C342.490448,333.496857 336.511261,338.753021 330.331268,344.310242 
z"/>
<path fill="#4E2F0C" opacity="1.000000" stroke="none" 
	d="
M410.788086,418.735718 
	C410.852142,422.867584 410.916199,426.999451 410.503601,431.555908 
	C383.314087,432.014008 356.601227,432.047577 329.888367,432.081177 
	C328.162170,431.236359 326.436005,430.391571 325.823425,430.091766 
	C328.721741,426.610748 331.675018,423.063721 335.267578,419.190704 
	C360.867249,418.821686 385.827667,418.778717 410.788086,418.735718 
z"/>
<path fill="#4E2F0C" opacity="1.000000" stroke="none" 
	d="
M410.968506,459.601532 
	C383.885834,460.053131 356.817871,460.032623 329.267883,460.077759 
	C327.587708,459.673889 326.389557,459.204315 326.108978,459.094360 
	C329.002716,455.284302 331.909943,451.456482 335.403748,447.251770 
	C360.918030,446.821411 385.845795,446.767975 410.773529,446.714569 
	C410.843445,450.852844 410.913330,454.991119 410.968506,459.601532 
z"/>
<path fill="#945C1A" opacity="1.000000" stroke="none" 
	d="
M410.851013,418.295044 
	C385.827667,418.778717 360.867249,418.821686 335.437317,418.886292 
	C335.649231,413.167908 334.949188,407.864136 330.502472,403.526855 
	C357.466766,403.237061 384.137146,403.256775 410.807495,403.276489 
	C410.842987,408.135773 410.878448,412.995026 410.851013,418.295044 
M355.505188,405.933319 
	C351.848267,405.935150 348.181000,405.779541 344.539612,406.018311 
	C343.133789,406.110535 341.786682,407.097961 340.412811,407.677551 
	C341.848541,408.442810 343.277557,409.858521 344.721039,409.873413 
	C360.344452,410.034729 375.970459,410.022491 391.594482,409.896057 
	C392.961029,409.884979 394.318298,408.730286 395.679871,408.106812 
	C394.256592,407.384399 392.842316,406.056427 391.408661,406.035187 
	C379.775482,405.862732 368.138672,405.935242 355.505188,405.933319 
z"/>
<path fill="#975F1A" opacity="1.000000" stroke="none" 
	d="
M410.836670,446.275391 
	C385.845795,446.767975 360.918030,446.821411 335.528595,446.915527 
	C335.677399,441.444672 334.466583,436.548676 330.063904,432.376587 
	C356.601227,432.047577 383.314087,432.014008 410.489868,432.026489 
	C410.935150,436.660431 410.917480,441.248322 410.836670,446.275391 
M368.500977,438.051422 
	C379.808929,438.046448 391.117828,438.109039 402.423462,437.944702 
	C403.727448,437.925781 405.013062,436.644440 406.307190,435.948425 
	C405.115112,435.314392 403.927155,434.137390 402.730347,434.128357 
	C386.600891,434.006226 370.469910,434.002777 354.340454,434.123871 
	C352.933014,434.134430 351.533691,435.228668 350.130615,435.819519 
	C350.245087,436.563568 350.359558,437.307587 350.474030,438.051636 
	C356.149963,438.051636 361.825928,438.051636 368.500977,438.051422 
z"/>
<path fill="#4E2F0C" opacity="1.000000" stroke="none" 
	d="
M410.854126,402.854431 
	C384.137146,403.256775 357.466766,403.237061 330.321136,403.243774 
	C328.138000,402.355682 326.430145,401.441193 325.847260,401.129089 
	C328.737488,397.650330 331.687317,394.099823 334.811279,390.246033 
	C355.167053,389.992859 375.348663,390.042938 395.950348,390.463959 
	C396.259949,396.653992 398.063995,398.648804 403.633514,398.842926 
	C406.091553,398.928650 408.550446,398.989563 411.008972,399.061737 
	C410.972900,400.185272 410.936829,401.308838 410.854126,402.854431 
z"/>
<path fill="#9A601B" opacity="1.000000" stroke="none" 
	d="
M309.961487,443.888000 
	C310.947723,435.901886 315.317596,432.136261 322.198883,432.925171 
	C327.976929,433.587616 331.737335,438.529816 331.119965,444.649994 
	C330.587952,449.924164 326.503204,453.783539 321.177643,454.043701 
	C315.385132,454.326691 311.481995,450.928162 309.961487,443.888000 
z"/>
<path fill="#9A601B" opacity="1.000000" stroke="none" 
	d="
M330.462006,418.986450 
	C327.696350,424.322083 323.471161,425.985687 318.179993,424.992340 
	C313.810181,424.172028 311.145355,421.256378 310.210419,417.016907 
	C309.174835,412.321014 310.820984,408.438354 314.791229,405.744629 
	C318.445343,403.265411 322.419556,403.259644 326.085358,405.554626 
	C330.965210,408.609680 332.091888,413.228119 330.462006,418.986450 
z"/>
<path fill="#9A601B" opacity="1.000000" stroke="none" 
	d="
M318.653076,375.473022 
	C324.916962,375.312164 329.171265,377.665161 330.587006,382.144958 
	C331.995361,386.601227 331.381836,390.812897 327.640717,393.983307 
	C324.001099,397.067719 319.858307,397.645294 315.564880,395.374725 
	C311.657562,393.308411 309.772308,389.894379 309.991852,385.528931 
	C310.258392,380.230072 313.210541,376.969696 318.653076,375.473022 
z"/>
<path fill="#50310C" opacity="1.000000" stroke="none" 
	d="
M562.936035,418.108398 
	C566.016785,422.137024 569.097534,426.165680 572.191772,430.212067 
	C571.921387,430.352570 570.387695,431.149261 568.076294,431.990509 
	C565.155151,432.104584 563.011719,432.174103 560.412109,432.207092 
	C542.345764,432.197021 524.735657,432.223480 506.655731,432.163971 
	C498.120697,432.046448 490.055420,432.014893 481.990173,431.983337 
	C481.976685,427.668884 481.963196,423.354431 482.416809,418.596924 
	C509.567963,418.138672 536.252014,418.123535 562.936035,418.108398 
z"/>
<path fill="#DEAF76" opacity="1.000000" stroke="none" 
	d="
M411.470642,398.977997 
	C408.550446,398.989563 406.091553,398.928650 403.633514,398.842926 
	C398.063995,398.648804 396.259949,396.653992 396.452271,390.446381 
	C398.820923,388.977997 401.100372,386.977081 403.395660,386.958771 
	C430.714081,386.740387 458.035278,386.754486 485.354218,386.934814 
	C487.558807,386.949371 489.752319,388.636658 492.229004,390.193726 
	C493.314178,394.379303 492.093567,397.099731 488.708771,398.262573 
	C486.623535,398.979004 484.239380,398.825378 481.989441,399.062439 
	C458.637054,399.006378 435.284668,398.950317 411.470642,398.977997 
z"/>
<path fill="#50310C" opacity="1.000000" stroke="none" 
	d="
M481.992493,399.463379 
	C484.239380,398.825378 486.623535,398.979004 488.708771,398.262573 
	C492.093567,397.099731 493.314178,394.379303 492.455078,390.448090 
	C515.700928,389.964233 538.998779,389.873108 562.783569,389.745575 
	C566.238159,393.498535 569.205811,397.287842 572.248413,401.172852 
	C571.550537,401.587158 569.674072,402.701080 567.011658,403.880066 
	C538.128906,403.921051 510.032196,403.896942 481.935486,403.872864 
	C481.955536,402.536682 481.975555,401.200500 481.992493,399.463379 
z"/>
<path fill="#4E2F0C" opacity="1.000000" stroke="none" 
	d="
M563.121399,446.830627 
	C564.759766,452.248260 568.193848,456.068176 574.011414,458.350372 
	C572.303955,459.073242 571.138855,459.566498 569.170410,460.067871 
	C539.572693,460.041138 510.778473,460.006256 481.984253,459.971375 
	C482.022369,455.885681 482.060455,451.799988 482.589905,447.250580 
	C509.761292,446.801483 536.441345,446.816071 563.121399,446.830627 
z"/>
<path fill="#4D2E0B" opacity="1.000000" stroke="none" 
	d="
M562.982971,474.976196 
	C564.380005,479.932831 566.840027,484.036041 571.793518,486.243103 
	C572.042358,486.353973 571.863770,487.424286 571.066406,488.062988 
	C540.840393,488.065552 511.432068,488.052979 482.023773,488.040405 
	C482.028656,483.969360 482.033539,479.898285 482.517792,475.364929 
	C509.659088,474.927185 536.321045,474.951691 562.982971,474.976196 
z"/>
<path fill="#975F1A" opacity="1.000000" stroke="none" 
	d="
M481.975159,488.501068 
	C511.432068,488.052979 540.840393,488.065552 570.730713,488.135803 
	C566.133911,491.483215 562.901123,495.859924 562.943115,502.594055 
	C536.273071,502.970520 509.635101,502.936584 482.534668,502.894470 
	C482.023621,498.244751 481.975098,493.603241 481.975159,488.501068 
M534.500000,494.974640 
	C541.496887,494.972504 548.496277,495.066986 555.488586,494.886871 
	C556.890686,494.850739 558.265869,493.769501 559.653503,493.170166 
	C558.244995,492.431702 556.842590,491.064636 555.427124,491.051056 
	C539.602295,490.898895 523.775085,490.910614 507.949768,491.033203 
	C506.542908,491.044098 505.144470,492.142487 503.742126,492.735779 
	C505.165192,493.479980 506.573517,494.833282 508.013733,494.868195 
	C516.505066,495.073730 525.003784,494.972473 534.500000,494.974640 
z"/>
<path fill="#975F1A" opacity="1.000000" stroke="none" 
	d="
M563.005676,474.554291 
	C536.321045,474.951691 509.659088,474.927185 482.534668,474.894470 
	C482.018494,470.226074 481.964844,465.565918 481.947723,460.438538 
	C510.778473,460.006256 539.572693,460.041138 568.858215,460.167053 
	C565.308716,464.001862 562.502930,468.308258 563.005676,474.554291 
M521.499756,466.051422 
	C526.658691,466.050446 531.823608,466.186737 536.973022,465.964752 
	C538.513123,465.898346 540.010071,464.830475 541.526794,464.221405 
	C540.068420,463.479675 538.616150,462.107391 537.150635,462.093079 
	C521.342529,461.938507 505.532043,461.957642 489.723114,462.064789 
	C488.255188,462.074738 486.793579,463.014404 485.329010,463.522400 
	C485.417297,464.306305 485.505585,465.090240 485.593872,465.874146 
	C497.229218,465.933319 508.864532,465.992493 521.499756,466.051422 
z"/>
<path fill="#975F1A" opacity="1.000000" stroke="none" 
	d="
M563.128784,446.408875 
	C536.441345,446.816071 509.761292,446.801483 482.628296,446.774109 
	C482.088013,442.145844 482.000702,437.530365 481.951782,432.449127 
	C490.055420,432.014893 498.120697,432.046448 506.516571,432.462891 
	C504.683960,436.988678 505.152954,437.899506 510.029633,437.923981 
	C525.647705,438.002319 541.266541,437.916443 556.884766,437.977875 
	C561.193298,437.994843 562.872864,436.471680 560.868347,432.243622 
	C563.011719,432.174103 565.155151,432.104584 567.759949,432.094604 
	C564.675110,436.084595 562.281128,440.438629 563.128784,446.408875 
z"/>
<path fill="#995F1A" opacity="1.000000" stroke="none" 
	d="
M481.916748,404.348511 
	C510.032196,403.896942 538.128906,403.921051 566.706787,404.012817 
	C565.800232,408.464569 564.412598,412.848663 562.980530,417.670593 
	C536.252014,418.123535 509.567963,418.138672 482.409729,418.140381 
	C481.923004,413.692627 481.910522,409.258392 481.916748,404.348511 
M531.494263,411.042633 
	C520.680847,411.042603 509.867371,411.033417 499.053955,411.051483 
	C497.227997,411.054535 495.349213,410.941986 493.598663,411.339691 
	C492.719849,411.539368 492.074432,412.766266 491.323456,413.528625 
	C492.093597,414.275421 492.749695,415.411591 493.660461,415.678467 
	C495.052765,416.086456 496.620789,415.947266 498.114319,415.948944 
	C511.090424,415.963379 524.066528,415.959442 537.042664,415.955627 
	C539.371094,415.954956 541.763855,416.247498 544.003418,415.794434 
	C545.302673,415.531616 546.355774,414.052155 547.519653,413.120239 
	C546.336243,412.437561 545.187988,411.251190 543.962952,411.165833 
	C540.154602,410.900421 536.317078,411.052612 531.494263,411.042633 
z"/>
<path fill="#9A601B" opacity="1.000000" stroke="none" 
	d="
M584.352173,423.470032 
	C577.018982,427.226013 570.533081,425.314819 567.910828,418.943176 
	C565.495972,413.075134 568.661621,406.519135 574.812927,404.649200 
	C579.297485,403.285980 584.298279,405.199005 586.936584,409.287048 
	C589.745544,413.639526 588.965820,418.395691 584.352173,423.470032 
z"/>
<path fill="#9A601B" opacity="1.000000" stroke="none" 
	d="
M583.738159,377.076447 
	C588.563232,381.750885 589.717163,385.968964 587.474854,390.571259 
	C585.372803,394.885468 581.721252,397.079315 577.007568,396.654694 
	C572.117371,396.214203 568.708984,393.419769 567.433777,388.543762 
	C566.319946,384.285004 567.659424,380.581268 570.959717,377.831177 
	C574.781921,374.646027 579.047607,374.339508 583.738159,377.076447 
z"/>
<path fill="#9A601B" opacity="1.000000" stroke="none" 
	d="
M582.483154,434.240540 
	C587.850769,438.042969 589.521362,442.457214 587.854553,447.647034 
	C586.546143,451.720795 581.883850,454.887299 577.449707,454.713684 
	C572.714172,454.528259 568.619019,451.170502 567.412231,446.459534 
	C565.326904,438.318390 573.655273,430.352966 582.483154,434.240540 
z"/>
<path fill="#9A601B" opacity="1.000000" stroke="none" 
	d="
M583.339233,510.660706 
	C578.691223,512.814087 574.054749,513.092285 571.051392,509.386993 
	C568.903625,506.737335 567.501221,502.626801 567.599487,499.220978 
	C567.735229,494.519623 572.177063,491.294464 576.795044,490.933655 
	C581.755920,490.546082 586.009338,492.999573 587.658691,497.200104 
	C589.510193,501.915405 588.107727,506.594574 583.339233,510.660706 
z"/>
<path fill="#9A601B" opacity="1.000000" stroke="none" 
	d="
M570.699524,464.611328 
	C578.333862,459.796021 586.402283,462.373871 588.077209,469.809143 
	C589.248779,475.009918 587.128174,479.888031 582.738098,482.091034 
	C578.280945,484.327698 572.753601,483.169312 569.592285,479.335907 
	C565.987000,474.964172 566.259460,470.192932 570.699524,464.611328 
z"/>
<path fill="#B47937" opacity="1.000000" stroke="none" 
	d="
M367.000000,462.040222 
	C374.496124,462.046082 381.497223,461.915131 388.484222,462.170654 
	C389.917450,462.223053 391.297791,463.721863 392.702515,464.554016 
	C391.261658,465.351044 389.827759,466.826233 388.378876,466.841095 
	C372.389435,467.005371 356.397156,466.994385 340.407440,466.842285 
	C339.147552,466.830322 337.901093,465.408997 336.648407,464.642700 
	C337.937408,463.794189 339.207153,462.246582 340.518524,462.210480 
	C349.174042,461.972260 357.838470,462.059143 367.000000,462.040222 
z"/>
<path fill="#B47937" opacity="1.000000" stroke="none" 
	d="
M356.435852,384.968750 
	C354.528534,384.245850 353.063568,383.525421 351.598633,382.805023 
	C353.159668,381.885773 354.710602,380.188110 356.283264,380.167725 
	C371.908264,379.965332 387.537750,379.967010 403.163055,380.153076 
	C404.679108,380.171112 406.175842,381.814209 407.681519,382.702972 
	C406.042206,383.457672 404.409973,384.849579 402.762543,384.867798 
	C387.469269,385.037140 372.173370,384.969879 356.435852,384.968750 
z"/>
<path fill="#B47937" opacity="1.000000" stroke="none" 
	d="
M370.543152,362.979614 
	C372.112152,361.311523 374.141663,359.628906 376.508392,357.877197 
	C390.000732,357.886261 403.155823,357.964752 416.310944,358.041901 
	C417.476898,358.048737 418.734314,357.767700 419.788025,358.112762 
	C421.480194,358.666870 423.037628,359.632385 424.651978,360.424103 
	C423.093079,361.266174 421.552307,362.795135 419.972351,362.836731 
	C410.983704,363.073456 401.985748,362.954895 392.990936,362.957581 
	C385.661835,362.959778 378.332733,362.962585 370.543152,362.979614 
z"/>
<path fill="#B87D3C" opacity="1.000000" stroke="none" 
	d="
M437.391724,353.257935 
	C437.906311,352.017212 438.716644,350.147491 439.544250,350.139862 
	C456.532166,349.982513 473.522064,350.026123 490.511383,350.090607 
	C491.215302,350.093292 491.917023,350.687134 492.662903,351.025146 
	C490.618774,354.218109 452.597626,355.738037 437.391724,353.257935 
z"/>
<path fill="#B87D3C" opacity="1.000000" stroke="none" 
	d="
M522.490662,359.120117 
	C523.773743,360.267059 524.724731,361.357208 525.823364,362.719604 
	C517.841125,362.991852 509.711212,362.991852 500.924713,362.991852 
	C502.887451,359.507050 502.887451,359.507050 519.681641,358.833557 
	C520.826416,358.857452 521.492493,358.960388 522.490662,359.120117 
z"/>
<path fill="#B87D3C" opacity="1.000000" stroke="none" 
	d="
M412.154114,323.128540 
	C412.826141,323.021851 413.498230,322.915222 414.504456,322.749237 
	C422.644348,322.789764 430.454163,322.782013 438.252747,323.073730 
	C439.963104,323.137695 441.633575,324.267700 443.322418,324.906799 
	C441.699341,325.607727 440.087555,326.882660 438.451324,326.914886 
	C428.981110,327.101044 419.505096,326.994202 409.702515,326.706116 
	C410.300659,325.326630 411.227386,324.227570 412.154114,323.128540 
z"/>
<path fill="#835623" opacity="1.000000" stroke="none" 
	d="
M411.672821,323.093750 
	C411.227386,324.227570 410.300659,325.326630 409.240662,326.699188 
	C408.920074,326.979156 408.732819,326.985626 408.264465,327.000610 
	C402.659180,327.005829 397.329163,327.139252 392.014343,326.914307 
	C390.460876,326.848511 388.950623,325.762451 387.420563,325.144043 
	C389.022003,324.429413 390.603729,323.156311 392.228363,323.098938 
	C398.542023,322.876068 404.869324,323.039368 411.672821,323.093750 
z"/>
<path fill="#835623" opacity="1.000000" stroke="none" 
	d="
M441.697144,294.836792 
	C441.723022,295.846802 441.406494,296.612274 441.025696,297.682129 
	C440.539948,297.992188 440.118500,297.997833 439.381866,298.005615 
	C434.737244,298.001923 430.401367,298.130066 426.081665,297.922119 
	C424.433563,297.842773 422.822571,296.993134 421.194672,296.494568 
	C421.301239,295.860443 421.407806,295.226349 421.514374,294.592224 
	C428.127838,294.592224 434.741272,294.592224 441.697144,294.836792 
z"/>
<path fill="#835623" opacity="1.000000" stroke="none" 
	d="
M456.063354,297.968201 
	C454.911346,296.849426 454.053192,295.747681 453.015045,294.398438 
	C461.035706,294.008911 469.250793,293.670746 477.375336,295.494904 
	C471.102722,299.363068 464.359406,297.368408 457.420044,298.004425 
	C456.749481,297.999603 456.553375,297.992401 456.063354,297.968201 
z"/>
<path fill="#B87D3C" opacity="1.000000" stroke="none" 
	d="
M356.004089,405.933197 
	C368.138672,405.935242 379.775482,405.862732 391.408661,406.035187 
	C392.842316,406.056427 394.256592,407.384399 395.679871,408.106812 
	C394.318298,408.730286 392.961029,409.884979 391.594482,409.896057 
	C375.970459,410.022491 360.344452,410.034729 344.721039,409.873413 
	C343.277557,409.858521 341.848541,408.442810 340.412811,407.677551 
	C341.786682,407.097961 343.133789,406.110535 344.539612,406.018311 
	C348.181000,405.779541 351.848267,405.935150 356.004089,405.933197 
z"/>
<path fill="#B87D3C" opacity="1.000000" stroke="none" 
	d="
M368.001434,438.051514 
	C361.825928,438.051636 356.149963,438.051636 350.474030,438.051636 
	C350.359558,437.307587 350.245087,436.563568 350.130615,435.819519 
	C351.533691,435.228668 352.933014,434.134430 354.340454,434.123871 
	C370.469910,434.002777 386.600891,434.006226 402.730347,434.128357 
	C403.927155,434.137390 405.115112,435.314392 406.307190,435.948425 
	C405.013062,436.644440 403.727448,437.925781 402.423462,437.944702 
	C391.117828,438.109039 379.808929,438.046448 368.001434,438.051514 
z"/>
<path fill="#B47937" opacity="1.000000" stroke="none" 
	d="
M560.412109,432.207092 
	C562.872864,436.471680 561.193298,437.994843 556.884766,437.977875 
	C541.266541,437.916443 525.647705,438.002319 510.029633,437.923981 
	C505.152954,437.899506 504.683960,436.988678 506.986359,432.548859 
	C524.735657,432.223480 542.345764,432.197021 560.412109,432.207092 
z"/>
<path fill="#B87D3C" opacity="1.000000" stroke="none" 
	d="
M534.000000,494.974579 
	C525.003784,494.972473 516.505066,495.073730 508.013733,494.868195 
	C506.573517,494.833282 505.165192,493.479980 503.742126,492.735779 
	C505.144470,492.142487 506.542908,491.044098 507.949768,491.033203 
	C523.775085,490.910614 539.602295,490.898895 555.427124,491.051056 
	C556.842590,491.064636 558.244995,492.431702 559.653503,493.170166 
	C558.265869,493.769501 556.890686,494.850739 555.488586,494.886871 
	C548.496277,495.066986 541.496887,494.972504 534.000000,494.974579 
z"/>
<path fill="#B87D3C" opacity="1.000000" stroke="none" 
	d="
M520.999817,466.051514 
	C508.864532,465.992493 497.229218,465.933319 485.593872,465.874146 
	C485.505585,465.090240 485.417297,464.306305 485.329010,463.522400 
	C486.793579,463.014404 488.255188,462.074738 489.723114,462.064789 
	C505.532043,461.957642 521.342529,461.938507 537.150635,462.093079 
	C538.616150,462.107391 540.068420,463.479675 541.526794,464.221436 
	C540.010071,464.830475 538.513123,465.898346 536.973022,465.964752 
	C531.823608,466.186737 526.658691,466.050446 520.999817,466.051514 
z"/>
<path fill="#B47937" opacity="1.000000" stroke="none" 
	d="
M531.992554,411.042725 
	C536.317078,411.052612 540.154602,410.900421 543.962952,411.165833 
	C545.187988,411.251190 546.336243,412.437561 547.519653,413.120239 
	C546.355774,414.052155 545.302673,415.531616 544.003418,415.794434 
	C541.763855,416.247498 539.371094,415.954956 537.042664,415.955627 
	C524.066528,415.959442 511.090424,415.963379 498.114319,415.948944 
	C496.620789,415.947266 495.052765,416.086456 493.660461,415.678467 
	C492.749695,415.411591 492.093597,414.275421 491.323486,413.528625 
	C492.074432,412.766266 492.719849,411.539368 493.598663,411.339691 
	C495.349213,410.941986 497.227997,411.054535 499.053955,411.051483 
	C509.867371,411.033417 520.680847,411.042603 531.992554,411.042725 
z"/>
</svg>