<svg version="1.1" id="Layer_1" xmlns="http://www.w3.org/2000/svg" xmlns:xlink="http://www.w3.org/1999/xlink" x="0px" y="0px"
	 width="100%" viewBox="0 0 900 650" enable-background="new 0 0 900 650" xml:space="preserve">
<path fill="#1FA4B6" opacity="1.000000" stroke="none" 
	d="
M554.000000,651.000000 
	C369.333344,651.000000 185.166672,651.000000 1.000000,651.000000 
	C1.000000,434.333344 1.000000,217.666672 1.000000,1.000000 
	C301.000000,1.000000 601.000000,1.000000 901.000000,1.000000 
	C901.000000,217.666672 901.000000,434.333344 901.000000,651.000000 
	C785.500000,651.000000 670.000000,651.000000 554.000000,651.000000 
M373.355011,570.122009 
	C414.490173,583.208557 456.352356,585.637878 498.679932,577.719116 
	C637.438293,551.759827 729.064392,417.163147 702.765564,278.259644 
	C678.385315,149.489777 560.673889,59.955791 429.943878,70.833916 
	C367.553589,76.025459 313.614197,100.531746 269.898193,145.069824 
	C209.045517,207.066849 183.860825,282.387787 198.763733,367.839569 
	C216.331223,468.569550 276.245483,535.585510 373.355011,570.122009 
z"/>
<path fill="#E05B49" opacity="1.000000" stroke="none" 
	d="
M372.966614,570.028564 
	C276.245483,535.585510 216.331223,468.569550 198.763733,367.839569 
	C183.860825,282.387787 209.045517,207.066849 269.898193,145.069824 
	C313.614197,100.531746 367.553589,76.025459 429.943878,70.833916 
	C560.673889,59.955791 678.385315,149.489777 702.765564,278.259644 
	C729.064392,417.163147 637.438293,551.759827 498.679932,577.719116 
	C456.352356,585.637878 414.490173,583.208557 372.966614,570.028564 
M262.032593,372.990631 
	C262.060272,380.299286 262.087982,387.607941 262.009277,395.794556 
	C262.045532,397.814392 262.081787,399.834198 261.624115,402.539459 
	C261.786102,409.748352 261.948090,416.957275 262.035980,425.010468 
	C262.023254,426.987457 262.010529,428.964417 261.320160,431.148468 
	C255.187546,434.003296 252.219177,438.743164 253.308868,443.940796 
	C254.536530,449.796448 258.867157,452.918793 265.885284,452.999084 
	C267.218414,453.014313 268.551880,453.001831 269.885193,453.001831 
	C361.050507,453.001862 452.215790,453.001892 543.381104,453.001801 
	C562.380798,453.001770 581.381226,453.109161 600.380005,452.975800 
	C629.687805,452.770050 654.202332,428.671570 653.951965,399.468872 
	C653.833984,385.710022 653.050964,371.747284 650.548096,358.251770 
	C631.497803,255.534286 536.083191,184.594116 431.776123,195.182709 
	C429.773590,195.386002 427.545746,196.343262 426.003265,197.639313 
	C412.357513,209.104782 398.839325,220.722076 385.290680,232.303009 
	C342.998383,268.453125 300.729797,304.631104 258.381958,340.716064 
	C254.782257,343.783417 252.600037,347.288116 253.325470,351.952026 
	C254.084808,356.833984 257.134613,359.969177 262.005676,362.044647 
	C262.043182,365.384827 262.080688,368.725037 262.032593,372.990631 
z"/>
<path fill="#5C2C0C" opacity="1.000000" stroke="none" 
	d="
M262.028198,361.152161 
	C257.134613,359.969177 254.084808,356.833984 253.325470,351.952026 
	C252.600037,347.288116 254.782257,343.783417 258.381958,340.716064 
	C300.729797,304.631104 342.998383,268.453125 385.290680,232.303009 
	C398.839325,220.722076 412.357513,209.104782 426.003265,197.639313 
	C427.545746,196.343262 429.773590,195.386002 431.776123,195.182709 
	C536.083191,184.594116 631.497803,255.534286 650.548096,358.251770 
	C653.050964,371.747284 653.833984,385.710022 653.951965,399.468872 
	C654.202332,428.671570 629.687805,452.770050 600.380005,452.975800 
	C581.381226,453.109161 562.380798,453.001770 543.381104,453.001801 
	C452.215790,453.001892 361.050507,453.001862 269.885193,453.001831 
	C268.551880,453.001831 267.218414,453.014313 265.885284,452.999084 
	C258.867157,452.918793 254.536530,449.796448 253.308868,443.940796 
	C252.219177,438.743164 255.187546,434.003296 262.119629,431.146606 
	C374.337616,431.154510 485.756195,431.165070 597.174744,431.167084 
	C598.838135,431.167114 600.506042,431.121613 602.164062,430.995056 
	C611.057312,430.316071 618.609314,426.671478 624.268188,419.850098 
	C634.345703,407.702454 635.079041,393.850006 629.081116,380.021576 
	C623.243896,366.563599 611.679871,360.996552 597.283142,360.995636 
	C548.985046,360.992584 500.686920,360.992126 452.388794,361.009857 
	C451.288300,361.010254 450.187866,361.238403 449.183197,361.349701 
	C449.183197,365.322327 449.183197,368.975952 449.113312,373.122070 
	C449.030426,376.583527 449.010040,379.552582 449.005829,382.521606 
	C448.994354,390.587250 448.006714,391.591888 440.039520,391.482422 
	C440.039520,392.611481 440.039520,393.739502 439.946411,395.299316 
	C439.923157,397.778351 439.992981,399.825592 439.979309,402.344177 
	C439.878571,405.632690 440.189117,408.499908 439.768311,411.255463 
	C439.115692,415.529266 437.964630,419.726959 436.679871,424.104370 
	C432.432587,426.863678 428.606628,426.374237 424.661133,423.657623 
	C423.662811,420.774384 422.356415,418.247620 422.104919,415.619934 
	C421.669220,411.067749 421.886932,406.453033 421.897461,401.437317 
	C421.925903,398.967651 421.887543,396.925232 421.916382,394.425964 
	C421.945801,386.741119 421.907959,379.513092 421.928741,371.797150 
	C421.987366,367.911591 421.987366,364.513977 421.987366,361.345215 
	C395.654968,361.345215 370.028290,361.345215 344.355225,361.345215 
	C344.355225,365.150146 344.355225,368.609100 344.272278,372.524231 
	C344.180664,377.082214 344.590546,381.246216 343.994415,385.260773 
	C343.675690,387.407196 342.050934,390.324249 340.256378,391.072357 
	C337.174225,392.357239 334.575195,390.579590 333.892395,386.535126 
	C333.998383,381.915863 334.012512,377.755035 334.049286,373.594452 
	C334.136108,363.775757 334.140472,363.775787 332.655334,362.212341 
	C332.655334,370.297089 332.655334,378.736420 332.585754,387.604004 
	C332.596405,390.342163 332.676636,392.652069 332.645630,395.386749 
	C332.624969,397.810638 332.715546,399.809723 332.683807,402.229370 
	C332.520111,403.144806 332.494171,403.641541 332.435059,404.134277 
	C331.751984,409.828644 328.697968,412.991760 324.154327,412.717651 
	C319.697723,412.448822 317.148712,409.345703 316.826019,403.814087 
	C316.787598,403.155548 316.688660,402.500580 316.701660,401.421844 
	C316.739471,398.972321 316.693359,396.944855 316.729126,394.461060 
	C316.755646,386.692047 316.700256,379.379395 316.727356,371.602539 
	C316.809845,367.869659 316.809845,364.601013 316.809845,361.152161 
	C298.189423,361.152161 280.108826,361.152161 262.028198,361.152161 
M502.335693,236.782211 
	C489.487366,224.826965 474.352600,220.338242 457.261322,224.064514 
	C439.358734,227.967697 426.844849,238.809265 420.922882,256.195618 
	C414.902283,273.871490 418.074524,290.224060 430.065552,304.745819 
	C437.583160,313.850098 447.646179,318.582947 459.112030,322.352600 
	C460.085846,323.245331 460.973480,324.261108 462.046326,325.012390 
	C479.753693,337.412384 506.875885,334.964691 522.940979,319.549683 
	C549.149902,294.401306 540.763184,250.928299 506.973633,237.067184 
	C505.823822,236.595551 504.291809,237.055588 502.335693,236.782211 
z"/>
<path fill="#FEFDFA" opacity="1.000000" stroke="none" 
	d="
M449.183197,372.629608 
	C449.183197,368.975952 449.183197,365.322327 449.183197,361.349701 
	C450.187866,361.238403 451.288300,361.010254 452.388794,361.009857 
	C500.686920,360.992126 548.985046,360.992584 597.283142,360.995636 
	C611.679871,360.996552 623.243896,366.563599 629.081116,380.021576 
	C635.079041,393.850006 634.345703,407.702454 624.268188,419.850098 
	C618.609314,426.671478 611.057312,430.316071 602.164062,430.995056 
	C600.506042,431.121613 598.838135,431.167114 597.174744,431.167084 
	C485.756195,431.165070 374.337616,431.154510 262.458435,431.043060 
	C262.010529,428.964417 262.023254,426.987457 262.536499,424.573334 
	C294.165771,424.133270 325.294556,424.149292 356.423248,424.121094 
	C379.224792,424.100403 402.026306,424.021606 424.827820,423.968689 
	C428.606628,426.374237 432.432587,426.863678 437.140869,424.176666 
	C471.920685,424.110535 505.894562,424.121674 539.868408,424.127777 
	C560.852295,424.131531 581.836487,424.076141 602.820007,424.163727 
	C608.012024,424.185425 611.965942,422.479248 613.956299,417.487610 
	C617.193848,409.368256 611.981689,402.037872 602.933838,402.026093 
	C548.643494,401.955414 494.353180,401.920013 440.062836,401.872803 
	C439.992981,399.825592 439.923157,397.778351 440.411011,395.290894 
	C493.915771,394.848267 546.862793,394.846344 599.809814,394.841522 
	C601.474548,394.841370 603.155151,394.953644 604.801270,394.770630 
	C611.066833,394.074097 614.995911,389.488983 614.829407,383.203766 
	C614.646179,376.286224 610.466919,372.653564 602.529785,372.650665 
	C551.414246,372.631927 500.298737,372.634216 449.183197,372.629608 
z"/>
<path fill="#EFC74A" opacity="1.000000" stroke="none" 
	d="
M424.661133,423.657654 
	C402.026306,424.021606 379.224792,424.100403 356.423248,424.121094 
	C325.294556,424.149292 294.165771,424.133270 262.573547,424.151184 
	C261.948090,416.957275 261.786102,409.748352 262.334106,402.206848 
	C280.902008,401.864136 298.759888,401.854034 316.617798,401.843933 
	C316.688660,402.500580 316.787598,403.155548 316.826019,403.814087 
	C317.148712,409.345703 319.697723,412.448822 324.154327,412.717651 
	C328.697968,412.991760 331.751984,409.828644 332.435059,404.134277 
	C332.494171,403.641541 332.520111,403.144806 333.096863,402.249268 
	C363.031738,401.853912 392.431183,401.859222 421.830627,401.864532 
	C421.886932,406.453033 421.669220,411.067749 422.104919,415.619934 
	C422.356415,418.247620 423.662811,420.774384 424.661133,423.657654 
z"/>
<path fill="#EFC94E" opacity="1.000000" stroke="none" 
	d="
M316.644897,372.066742 
	C316.700256,379.379395 316.755646,386.692047 316.285889,394.463501 
	C297.879028,394.920410 279.997375,394.918488 262.115692,394.916595 
	C262.087982,387.607941 262.060272,380.299286 262.533203,372.553711 
	C280.904175,372.100067 298.774536,372.083405 316.644897,372.066742 
z"/>
<path fill="#FEFEFE" opacity="1.000000" stroke="none" 
	d="
M316.727356,371.602539 
	C298.774536,372.083405 280.904175,372.100067 262.576019,372.091003 
	C262.080688,368.725037 262.043182,365.384827 262.016937,361.598389 
	C280.108826,361.152161 298.189423,361.152161 316.809845,361.152161 
	C316.809845,364.601013 316.809845,367.869659 316.727356,371.602539 
z"/>
<path fill="#FEFCF8" opacity="1.000000" stroke="none" 
	d="
M262.062500,395.355591 
	C279.997375,394.918488 297.879028,394.920410 316.203979,394.919861 
	C316.693359,396.944855 316.739471,398.972321 316.701660,401.421844 
	C298.759888,401.854034 280.902008,401.864136 262.581085,401.864136 
	C262.081787,399.834198 262.045532,397.814392 262.062500,395.355591 
z"/>
<path fill="#D05322" opacity="1.000000" stroke="none" 
	d="
M458.666107,321.750061 
	C447.646179,318.582947 437.583160,313.850098 430.065552,304.745819 
	C418.074524,290.224060 414.902283,273.871490 420.922882,256.195618 
	C426.844849,238.809265 439.358734,227.967697 457.261322,224.064514 
	C474.352600,220.338242 489.487366,224.826965 502.807007,237.218018 
	C524.267334,261.408722 521.265503,294.958191 496.577393,312.884247 
	C485.170441,321.166840 472.275970,322.955444 458.666107,321.750061 
M427.248260,272.883240 
	C428.730469,273.862885 430.212646,274.842499 431.694855,275.822144 
	C432.552063,274.378784 433.524109,272.988312 434.222229,271.471741 
	C434.623413,270.600189 434.602020,269.527161 434.734528,268.539978 
	C436.723969,253.715347 446.589813,242.998306 461.255798,239.857407 
	C463.514587,239.373642 465.969452,239.586014 468.105011,238.830353 
	C469.333618,238.395599 470.864471,236.663544 470.864990,235.514832 
	C470.865479,234.366669 469.262390,232.426254 468.124939,232.233459 
	C465.737335,231.828781 463.143524,232.071182 460.722717,232.522171 
	C441.108215,236.176132 427.734314,251.985168 427.248260,272.883240 
z"/>
<path fill="#EFC84A" opacity="1.000000" stroke="none" 
	d="
M439.979309,402.344177 
	C494.353180,401.920013 548.643494,401.955414 602.933838,402.026093 
	C611.981689,402.037872 617.193848,409.368256 613.956299,417.487610 
	C611.965942,422.479248 608.012024,424.185425 602.820007,424.163727 
	C581.836487,424.076141 560.852295,424.131531 539.868408,424.127777 
	C505.894562,424.121674 471.920685,424.110535 437.485870,424.029236 
	C437.964630,419.726959 439.115692,415.529266 439.768311,411.255463 
	C440.189117,408.499908 439.878571,405.632690 439.979309,402.344177 
z"/>
<path fill="#EFC94C" opacity="1.000000" stroke="none" 
	d="
M449.113312,373.122070 
	C500.298737,372.634216 551.414246,372.631927 602.529785,372.650665 
	C610.466919,372.653564 614.646179,376.286224 614.829407,383.203766 
	C614.995911,389.488983 611.066833,394.074097 604.801270,394.770630 
	C603.155151,394.953644 601.474548,394.841370 599.809814,394.841522 
	C546.862793,394.846344 493.915771,394.848267 440.504150,394.859070 
	C440.039520,393.739502 440.039520,392.611481 440.039520,391.482422 
	C448.006714,391.591888 448.994354,390.587250 449.005829,382.521606 
	C449.010040,379.552582 449.030426,376.583527 449.113312,373.122070 
z"/>
<path fill="#401E07" opacity="1.000000" stroke="none" 
	d="
M458.889069,322.051331 
	C472.275970,322.955444 485.170441,321.166840 496.577393,312.884247 
	C521.265503,294.958191 524.267334,261.408722 503.108154,237.367584 
	C504.291809,237.055588 505.823822,236.595551 506.973633,237.067184 
	C540.763184,250.928299 549.149902,294.401306 522.940979,319.549683 
	C506.875885,334.964691 479.753693,337.412384 462.046326,325.012390 
	C460.973480,324.261108 460.085846,323.245331 458.889069,322.051331 
z"/>
<path fill="#EFC94E" opacity="1.000000" stroke="none" 
	d="
M332.756897,394.961945 
	C332.676636,392.652069 332.596405,390.342163 332.780640,387.602051 
	C333.298401,387.104034 333.553650,387.044647 333.810822,386.993683 
	C334.575195,390.579590 337.174225,392.357239 340.256378,391.072357 
	C342.050934,390.324249 343.675690,387.407196 343.994415,385.260773 
	C344.590546,381.246216 344.180664,377.082214 344.715454,372.520630 
	C370.784454,372.135590 396.327271,372.210327 421.870117,372.285065 
	C421.907959,379.513092 421.945801,386.741119 421.459076,394.413696 
	C391.541962,394.892822 362.149445,394.927399 332.756897,394.961945 
z"/>
<path fill="#FEFEFD" opacity="1.000000" stroke="none" 
	d="
M421.928741,371.797150 
	C396.327271,372.210327 370.784454,372.135590 344.798401,372.064453 
	C344.355225,368.609100 344.355225,365.150146 344.355225,361.345215 
	C370.028290,361.345215 395.654968,361.345215 421.987366,361.345215 
	C421.987366,364.513977 421.987366,367.911591 421.928741,371.797150 
z"/>
<path fill="#FEFDF9" opacity="1.000000" stroke="none" 
	d="
M332.645630,395.386749 
	C362.149445,394.927399 391.541962,394.892822 421.391846,394.870544 
	C421.887543,396.925232 421.925903,398.967651 421.897461,401.437317 
	C392.431183,401.859222 363.031738,401.853912 333.219238,401.828705 
	C332.715546,399.809723 332.624969,397.810638 332.645630,395.386749 
z"/>
<path fill="#B28F52" opacity="1.000000" stroke="none" 
	d="
M333.892395,386.535126 
	C333.553650,387.044647 333.298401,387.104034 332.850220,387.173767 
	C332.655334,378.736420 332.655334,370.297089 332.655334,362.212341 
	C334.140472,363.775787 334.136108,363.775757 334.049286,373.594452 
	C334.012512,377.755035 333.998383,381.915863 333.892395,386.535126 
z"/>
<path fill="#EEB19E" opacity="1.000000" stroke="none" 
	d="
M427.197266,272.470337 
	C427.734314,251.985168 441.108215,236.176132 460.722717,232.522171 
	C463.143524,232.071182 465.737335,231.828781 468.124939,232.233459 
	C469.262390,232.426254 470.865479,234.366669 470.864990,235.514832 
	C470.864471,236.663544 469.333618,238.395599 468.105011,238.830353 
	C465.969452,239.586014 463.514587,239.373642 461.255798,239.857407 
	C446.589813,242.998306 436.723969,253.715347 434.734528,268.539978 
	C434.602020,269.527161 434.623413,270.600189 434.222229,271.471741 
	C433.524109,272.988312 432.552063,274.378784 431.694855,275.822144 
	C430.212646,274.842499 428.730469,273.862885 427.197266,272.470337 
z"/>
</svg>